<mxfile host="app.diagrams.net" modified="2020-10-21T16:33:16.619Z" agent="5.0 (Windows NT 10.0; Win64; x64) AppleWebKit/537.36 (KHTML, like Gecko) Chrome/86.0.4240.75 Safari/537.36" etag="aZjGcKDBMHipLFBSA2Gp" version="13.7.7" type="github">
  <diagram id="tklBIHeSBYgqsz7rXZV5" name="Page-1">
    <mxGraphModel dx="1422" dy="-407" grid="1" gridSize="10" guides="1" tooltips="1" connect="1" arrows="1" fold="1" page="1" pageScale="1" pageWidth="827" pageHeight="1169" math="0" shadow="0">
      <root>
        <mxCell id="0" />
        <mxCell id="1" parent="0" />
        <mxCell id="9exWWvepdivDwfKTO8fI-294" value="" style="endArrow=none;dashed=1;html=1;" parent="1" edge="1">
          <mxGeometry width="50" height="50" relative="1" as="geometry">
            <mxPoint x="120" y="1720" as="sourcePoint" />
            <mxPoint x="340" y="1720" as="targetPoint" />
          </mxGeometry>
        </mxCell>
        <mxCell id="9exWWvepdivDwfKTO8fI-295" value="" style="endArrow=none;dashed=1;html=1;" parent="1" edge="1">
          <mxGeometry width="50" height="50" relative="1" as="geometry">
            <mxPoint x="120" y="1580" as="sourcePoint" />
            <mxPoint x="120" y="1720" as="targetPoint" />
          </mxGeometry>
        </mxCell>
        <mxCell id="9exWWvepdivDwfKTO8fI-314" value="Sistema de Aquisição de Dados &lt;br&gt;(Frequência, Intensidade de Corrente, Tensão)" style="text;html=1;align=center;verticalAlign=middle;resizable=0;points=[];autosize=1;fontFamily=Courier New;" parent="1" vertex="1">
          <mxGeometry x="60" y="1550" width="340" height="30" as="geometry" />
        </mxCell>
        <mxCell id="9exWWvepdivDwfKTO8fI-316" value="" style="shape=image;imageAspect=0;aspect=fixed;verticalLabelPosition=bottom;verticalAlign=top;image=data:image/png,iVBORw0KGgoAAAANSUhEUgAAAgAAAAFpCAYAAADqa5D1AABey0lEQVR42u2dC5gcRbn3Z3dmdq7ZTLK5bK5skkmQS0K4mXA1chORA+GwQrgvKhiuJ4icD2Q5cHRR/AAFPy4BORzRRckRNAho4ADCASWYCChrCBgRUZHrIUCAATfxe2unOtPbW91d1dOX6pn/Ps/7wG52flv11lvv++/uqupEojG+UmRHkt1K9hzZ22QVGAwGg8FiaO+SvUC2kqyHLKtl5T3ggEUtZK0mawmZdyjZH8j+AYPBYDBYA9pLZMcEXX9Vi3XSaiHyWEf/r5PTWlpaRlg9gwAeeOCBBx54EfKu4bXP9/qrepWeIkubLOVVfXjkXYlgAA888MADr8l4V/lZf70Ua/YH20yWrrP4q/KOcnN2a2vrVvNj8MADDzzwwANPB146ne72o/56KdYZsqzJMnUWf1Vejj8PETrH7GjD6nE2eOCBBx544GnGe2Hu3O2L9dRfL8WaFeicybJ1Fn8vvM95cPZGvl7gELK9ZYxU1j7ZbHa/XC63v2Hse/ZzWYbPvI+RfYbsfzQLVrbj4mGy75LdSPZ9ssfJPsBkBw888MALhtfW1nZsPcVf+rN8dWGerGAy9n2rxz9cD+9ekXOSyVaypMm2Ovtpsqkhti9wHomGcx3668kUeVvI7iA7kG/BHNHfmTO7OrLZzEmpVHJ1BO0DDzzwwGtoHtWBW+u4+E5K1R9evFjBKpqsUGcxrIf35kjnJEcY/ze2l7Ir5PaFwqNnQDcL+usxuGz9J7Lfku2m0l+603FsS0viFRveINm1ZN1ki61GQX5ELpddQndMTJZdwn4u+n03Aw88H3lLydbZxPVmsm+TfRr+A0+S9y9kf1TIz8/WseDeXQCYknm7yYp1Fq9iHbz88MUQVefQVeZWY9+zn/PfuTHk9oXGmzhx/HaC/iouJnH1n9VuTzgcSOHS38lkTwmYPY0wHuA1La9oIwLOhP/A88AbR/Znyfz8tscF92lXAcB/OW/q0Gj+33qcY3BGe+SVzCshq05JmSxpXWF5UsjtC5VHff6z1xWlkv4z24/JknX2dwzZ70zMvzbSeIDXtLyllrnyv9a5Av+Bp/DVK5mfK4rFP2PaNZC0XQNgWqBXsCiaqJ1TUixe3Y0cXNTfgZCK/3qygk/9nUO2iXPXYrKD1wC8QwXzBf4DzxOvtbXlZMn8XFFon7HLbqsAcFMKOcuzXB2cU1IsXt0NHlzKAsBD8Wf2cZ/7+3/sBACSB3gx5NkKAPgPPFUerRk4TTI/VyTblzftsmMCIOX2jCBrEgAFXZxDi8nGKhav7gYPLiUB4LH4PxRAf9lajtesAsDMy2Qyl1et7XJq36X0z30Otovoj9BK2T3Z52ssW96XHNr6BeP32OdceAcKPr+9XbvtePl8brSAc7KLD7byCoX8SYLxmOT2eatRfMywji+xl0iMh2FLReO7xx4fHavR+H5RYXz3UxEA1vlBu2K+LtlfZruNvDJs3Vuyv4Z92aa9yyT7y+wTNoyybDxz3mgbzjEy84Pi7rMOjxWl4pnxxo/vmGuTrz6pMDfOtst/1NZLFebHQtH8oPl/umR+rkjUD6OGGwIg7XTrP8UVgiEA8joVw66u6dMUi1d3gyvLgYCLP7PjAurv1WYBYOUptE+4kJDxSDB+UbK/rzu0c4OC//oEn1/sYTw6BZz7ZceX9gevEIzHfFWxOGpU8SDBY6cbFDirReO7YMGuHRqN7wsK43uJrAAQr9lJDiqs2fncyP5mzlecv4M27V2vkA8us0tRivnFbiv27TLzg2L6Tpv80qWS/9rbR33KJl9doRDXAw6PZTcpcM4UzY+aAHAd34pL/TDvOss5HhrEFwWkTQIgq1sxpL3l0xWLV3eD31YaCLj4s/3+YwPq7ycMAWCTLFWOzOwRtY9upZ0n2V9HAaDgPykBIMFTEgCCZLlCMB7zVcXi6NHtBwvGd7mqALCOb1UAaDO+LyiMr5QAoM+ttykOgwq++5ygvxcozl+hAGDtU8gHrgJA0n/SAkDEo23PK23yS5dK/jMJAOv8uEJhfgw45D9lAWCdH1UBIDW+FZf60W4SAFm3RX9mAVDP8b6BFcOaAJBOHt0Bt6+FAnNqqTR6T0qWB44ZU9pn4sQJcxcu3H1MSGJiIMDiz+yPAfpvAhMADkpaZW1Dj6h9tQLh2l/bAkGf26DgP1cBIDke0gJAxGtrS68QjMd8VbFoEgDm8VUSAKLx3X33XcZoNL4vKIyvqwCo+i/1nM38UBYAlv5eoDh/B0Xzl7VPIR84CgCF/CIlABx4d9h8vksl/3EBIMpXV8jPj9Q6h/ynJABE84OtAZAc34pLfjYEQN6xnvMPJU17BLUr/jUBoHTl0B1A+2bxZ4oPUjvesQlWNjDsONyvke2c4K9vDMB/AwEWf2aPBjm+1I5fOvCUC4S1fdUCIdXf1+3Gg3z2vIL/HAWAwnhICQAHnuiEsPmqYpELAOv4SgsA4q0WjW9n58Q2jcb3RYXxdRQAhv/S6WECwOw/JQEg6O8FivN3UDR/WfsU8oGtAFDML64CwIV3u6oAEPHosdYhNvnqCtn5QRd9zzjkv00K8+Ms0fxguwAkGRWX/NwutYbPJABSuhZ/ZmwNgOKVQ7eP7VtE9t8ei+sTieobDFt99t9AgMWf2c+DHF9KRI848JQKhKh97BmxZH9ftxsPauPzCv6zFQCK4+EqAFx4/aoCwCZZHiQY3+WSyY0VwjU245vSaHxfVBhfWwFg9p9JAFjnx6BCcThlZH8z5yvO30HR/K0JAKl8IBQAtCDxIMX84igAJOaHkgCw41G77RZyXiE7P0wCQJT/NsnODxa/NvOjR1UA2ORnud17JgGgbfFn37NdAIqJo9uH9k0h+5FPxfWXZHN99N9AgMXfEC6BjO/8+XM7aCL92oGn8JKMlpNtHiOcJcl43W48agJAyn9CAeBhPBwFgARPSQA4JMt9BZzlCfkrpTU245vSaHxfVBjfS2yK4WFm/3EBIJofg7LFga72zxT09xzF+Tsomr9VASCdDy4Tzd9isXCYYn6xFQCS80NaALjwFqkKACuPCwC7/LdJdn6wO1g280NJANSdn+t8o1CYC+BKqgKgzvYdzJOHn8WVDdqpPvlvIMDiP3TU5KxZM1JBjG9Hx9iFNJGedOD9QyFZnmbTvjNVC4QgWT6v4L8+QXE4wsN42AoAyfGVFgAuvL1VBYDlSmmNzfimNBrfFxXG9xJRPNMWtaOG+29IAIjmx6BscaCFYGcJ+rtMVQDYnCD6nEI+uEw0f+nu0OGK+WWqzWPAOyTnh5QAkJgfSgJAzBtaA2CX/zbJzg+TALDOD2kB4Hf91bn4J1QFACXfT9fRPvYcZnOAxfWynXbaMVmn/wYCbN/Q5+g58L5BjC+9JONcLgDseP9QSJan27RPqUDYJMvnFfzXZ+1vPp8/xsN4CAWAwvhKCQAJnpIAEFwprbEZ35RG4/uiwvheIopnuho+2uK/9TZTYFC2OJgEgLm/yxTn76DNnZP1KnlKNH9rAkA6v0wVPwZMr5ScH64CQHJ+SAsAB96AQ5rbJDs/uAAQzY8eyfGtNFPxVxIAzNk0iU7w2L7jAr6yHvocHXLxf+v030CQ7WOfp4MtvhXE+NLE/wW18UkH3j8UkuXpNu2TLhAOuxE2KPitz9rfQqFwrIfx6BRcKT2gML6uAkAyXqQFgHjr1tAaANH4pjQa3xcUxvcSUTzXBMBW/ykLAKv/uACw9neZ4vwdtMkvygLA6r+qAFDKL1NF+YDt75ecH44CQCH/SQkAF56yABDx+BoA0fzokRvfVKWZir+0ADCcTbfmTvTQPnY609+DLv615JY/tQ7/DQTdPrKNs2fPnOrn+NK2yUW8fWsdPvYPhWR5uk37zpTs7+sO8acsAMz9rQkApfHoFFwpPaQwvo4CQCFepASAA2+1zdimNBpfZQFgjeeqABjmPyUBIPIfXwNg7e8yxfk7aJP/lASAKD+zNQCK+WWqKB/UBIDr/LAVAIr5z1UASPCUBIAD7ywbRo/k+FaaqfhLCQCzs00CQLZ9o8j+FFbx5/buuHEdO3n030AI7WMHy1zn1/guWrR3ia4MH+PtcxIAG0RW3Zefep49mzeMCsTxNu07wY5j5hHjCYf4e9CNYbIvCK6UFvPHCBsUOOMFV0q3Gf2V4F0p8MX2dv5z4O0m4HzFbTxMvNsdBIAu4/uwwricLcpXbA2AZb7ZCYBnZfrLvqfHl0fbPJZ07a+J93ub/HefbJ+J96/irWqt+yj4jdkkUT6gu6A3Ss6Pa0QOJWE8XSGemS2wGZsLFObHzxzy1m8V5scJqgLAkp8rzVT8XQWAtXhxAaDSvitDLv4GjwWU8kJM9iwqpPaxEwEP8WN86ZHCV0ztWxuz+AMPPFExPCzh8DZA+A88RV6PZH6uNFPxdxQAouLF1wDItm8a2YcRFH/jdz6m6j+2GjXE9r1Dtlc940u3Nc/gYkJZACB5gKcx71BVAQD/gaciAGx2I1TqKf7Su/80ck4pobaP+dMKzVJ5BhTEK3h/quo/th81xPYxe4/sJNXxrb79re0KAW8tJjt4DcBTEgDwH3gqAsAhP1c8ts84+l/6kKCiJs4pKRavbslmpcleibD4M9tsPCeT9V9NAITSPqtYmS8zvvQM/EhiPm3DG8BkB68BeEdZ4voF+A+8OninS+bniof2tfATf90FgOl9wu2aOKekWLxkBcC+ERd/wz6v4r+qAAi9+JvtsUT1vQjsxSCzqT3Txo4dsxtbFU3P+r/BFiG58Jjo2RbJA7yY834giO2d4T/wPPL+WzI/VxTb12J634+zAOC/nOdX/+2aOKekWLxkBcDFGhR/ZitU/MfWAERY/P3isZXRC5E8wIshr53sqzZxze4CfAz+A08Bw466v04hn1YU2tfC3/LbZhIAjq8HzvKr/6Lp3cJRO7ukWGykBAB97keaFMN1Kv7jJ1LFufib7V2yjczocxuJ8ZbV2M+N31Ex8MALiLdZIq7fg//Ak7Qtivm0olB/s9y2CgA3pZAzCYCiJkqrpFhsumXax55Ra1IM2S6EFgX/DTRI8QcPPPDAA0+NV5Gsv3lezw0BkHJ7RpA1CYCCLrdZ2NsAFZ3dLdM+elb9J42CIa/gvwFMJvDAAw+8puRVJNfwFUwCIO106z/FFYIhAPI6PWPp6po+TdHZ3TLtIwHwN42CoaTgvwFMJvDAAw+8puRVXOqbcffeEAAZp+Kf5OqgzfS8QKsFFjNndk1XdHa3TPskVquHGQwpBf8NRBesqZfppMUedq4/M3pr4MeSyeRHE9XjY0V2SsL+RRl30XbBTxgsF96eZLfYTAZ2tvZu7HPs8y68IxKS58AjGYEHHnga8iou9a3dJACybov+zAIgI31KUIirK2sCQNrZ3TLtIwHwqCbB8Kqi/waiClYq/p/1ML4XCnj/O2/eDuMU44XF5nMW1pUe4u8TSEbggQdeTHkVl/pmCIC8Yz3nH0qa9ghqV/xrAkDJ2d2Sq+lv1CQYHlH030BUwUpX1Ad4GN8lgjsJ6zzGyypL+870EH9lJCPwwAMvpryKS31rl1rDZxIAKV2LPzO2BkDR2d2S7TtJh2Cg43KvVPTfQFTBygWA6vgusfLYYUYe42WVpX1neYi/MpIReOCBF1NexaW+FVWO+03qXPzZ92wXgKKjuyXbN8XYgxllMLS3jzpU0X8DUQUrtXV/D+O7xMozCQDVeFllbh/Fxhc9xF8ZyQg88MCLKa/iS/31WvjDLP6cV1IVAArteyDKYKB1CC+xl+Yo+m8gqmBNJlv39DC8S6w8LgC8xMsqc/voTYPneYi/MpIReOCBF1Nexe/6q3PxT6gKAPY2QIX2HRllMGSzmT4P/huIMFgXqo4vjccxgldarvMYL6vM7TMJABX/lZGMwAMPvJjyKs1U/JUEAHNqPp87QaF97OdPRxQMb7IFjh78NxBhsC5UHV8aj5MFvAEv8UKfu9fcPi4AVP1XRjICDzzw4slLVZqp+EsLANNWtRMV2/exKIIhl8st8+i/gQiDdaHq+NJ4fEbAG/ASL/To4H5z+/gaAFX/lZGMwAMPvJjyKs1U/KUEgNnZJgGg0r6rwwwGKmQP7L33wpJH/w1EGKwLVce3JgCG8Qa8xEtbm1kADPHO8uC/MpIReOCBF1NepZmKv6sAsDqbCwDV9mXIHg2n+KdemDJl0kyv/mO3zyMM1oWq41sVACN4A17ipSYAtvLOVPUffX4OkhF44IEXU16lmYq/owAQOZuvAfDSvjHEeyrgwXu5o2PszvX4jy2gizBYF6qOL1sDIOANeImXqgAY1r4zVf1H/p+PZAQeeODFkzckAFrrqOktcSr+tgLAztlsF4DX9rFDh+j2/CMBXfk/N358x9x6/ce20EUYrAtVx5ftAhBwBrzEC1sDYGnfmar+Gz9+3M5IRuCBB15MeRWvhZ+f+yN9SFBRg+IvFAAuzu6up30LFuzakclkLifeoF+D19bWdlu5PHOyH/6rCYBIgnWhh/FdoioAHI5vvtfCOVPVfzUBgGQEHnjgxY5X8Vj8U1ICwPQ+4XYNiv8IASDh7G4/2kdvkds5IXlQkF37qFgP0BvvDvfTf1UBEFmwLvQwvkoCwIW3SlUAWHlVAYBkBB544MWSV/FQ/I33/TgLAP7LeX71365B8R8mACSd3e1z+/Ygu5nsbbnBS31Az6rvKhYLRy9atHfJb/+xNQARButCD/6TFgASPCUBIOKxNQBIRuCBB15MeRXF4p/hb/tNOx79z385y6/+i6Z3C0dZ/LcKAAVndwfUvnSi+l76c8iWk91Bxm5Jr2QCgdpxARX9I7bbbs7kIO+c8EN0ogrWhR78JyUAJHnSAsCOx3YBIBmBBx54MeVVFOpHlttWAeCmFHImAVDUoPgPCQBFZ3eH3L6weQMRButCD/11FQAKPCkB4MIrIxmBBx54MeVVJOtHntdzQwCk3J4RZE0CoKBLMWRvA1R0dncDF/+EqgDwOVgXeuivowBQ5LkKAAleGckIPPDAiymvIrmGr2ASAGmnW/8prhAMAZDXqRiyrXmKzu5u4OKvJAD8Dlb2NkAP/bUVAB785ygAJHllJCPwwAMvpryKxO69okkAZJyKf5KrgzbT8wKtiiF7YY6is7sbuPhLC4AggrW9fdT+HvorFAAe/WcrABR4ZSQj8MADL6a8ikv9aDcJgKzboj+zAMhInxIUYjGsCQBpZ3c3cPGXEgBBBevo0dQk9f4uEfAGPPpPKAAU/VdGMgIPPPBiyqu41A9DAOQd6zn/UNK0R7BFx2JYFQBKzl7SwMWffT0bVbCaBIBKf5eM5KXWefTfCAHgwX9lJCPwwAMvpryKS/1ol1rDZxIAKV2LPzO2BkDR2Zc0cPHP8wCIJFi5AFDt7xIrjx1m5NF/qyztO8vDeJSRjMADD7yY8iou9aOoctxvUufiz75nuwAUHf1HskwDFn/2dVqUwcrXAKj2d0li5AmJz3j03ypz+yg2vuhhPMpIRuCBB15MeRVf6pHXwh9BMSx5cPa36RS+0Q1W/OeSbYwyWNkuAA/dXTLyxUhDAsCL/1aZ25fLZc/zMB5lJCPwwAMvpryK3/VI92JY8uJsKjIPslvWQRzHGzKP3QFhpw++rUGwLlTtL3sboOCVlus8+m+VuX0mAaAyHmUkI/DAAy+mvEozFX8lAWDz/uT36Ocv078rG/scff4Vq4XIe41si0bBulB1fPP53MkC3oCXeGFvAzS3jwsA1fgrIxmBBx548eSlKs1U/KUFAIIrFN4i1fElAXCGgPcHL/GSTqd+YW5fNpu50EP8zcP4ggceeDHlVZqp+EsJAARXaLw7ydpkx3fWrBnT6FHMEza8T6vEC71W+RDi/N3Svmfon8cphB47D/t7GF/wwAMvprxKMxV/VwGA4Aqd9yrZWjujz60lxpNU+J+k/77lwlvnxDLxfke2xaZ975D92o3D7SWML3jggRdjXqWZir+jAEAwgAceeOCB1zy8IQHQWkdNb4lT8bcVAAgG8MADDzzwmoxX8Vr4+bk/0ocEFTXZR19CMIAHHnjggQdeouKx+KekBIDpfcLtmhyiU0IwgAceeOCBB56aAODF33jfj7MA4L+c51f/7ZqcoFdCMIAHHnjggQeevADg9TzD3/abdjz6n/9yll/9F03vFo76BL0SggE88MADDzzw5AQAr79ZblsFgJtSyJkEQFGT43NLCAbwwAMPPPDAcxcAvP7meT03BEDK7RlB1iQACrqcnc/eBohgAA888MADDzxnAWBaw1cwCYC0063/FFcIhgDI6/TinK6u6dMQDOCBBx544IFnLwBMu/eKJgGQcSr+Sa4O2kzPC7R6a97MmV3TEQzggQceeOCBJxYApvrbbhIAWbdFf2YBkJE+JSjEQ4N23HG7zkym7ca2trYbyTnX0j9fo2rsc+zzjGNYxLwbyG4le5Dszwh+8MADDzzwJD5fcam/hgDIO9Zz/qGkaY+gdsW/WXiTJ3eWC4X8ySQifkTB8D6CHzzwwAMPPDcBIKhH7VJr+EwCIIXirw9vxoxtplIwXED//AqCHzzwwAMPPJEAsKlHRZXjfpMo/tryRpN9k2wzgh888MADDzxDANRdj7wWfhTr0HmLyP6K4AcPPPDAa3pexe96hGKtP28K2W8R/OCBBx54Tc2roPg3J2+MVQRgMoEHHnjgNRMvVUHxb17eJONxACYTeOCBB17T8Soo/s3N24eCYRCTCTzwwAOv6XiVsIr/WPbsOZ1OT584ccJHJk3q3N4w9j37Of37VFVrdt6UKZPnzJu3w7h6xASdF3AtJhN44IEHXtPxKkEV/zTZiWSryN6GswPlsa19z5BdQVZWvZOw7bazpxDrVYwHeOCBB14z8YYEgOfib7f77+Nkfxj+xxNwdji8QbKryLIqjxHoLYkXw3/ggQceeE3Hy3op/PzcnxHiYWlCcNhMMglnh8z7FX/sIrWGgL0lkXjvw3/ggQceeE3F28VD8U+JBMBRZFvExT8JZ4fP+yV/FCO7gPC/4D/wwAMPvKbifUmx+Bvv+xkmACaTvTWy+LdaBAAGL2TelxV2D/TAf+CBBx54TcVjj+uTksU/w9/2m7Ye/X+dtQGtrdXiXxMAcHYEvPfIJkhuHdwG/gMPPPDAazreGRJrxrLctgoA499zZO9Yi79ZADCDsyPjnatwbsDb8B944IEHXlPxNpHNdSj+ebKcSQCkzL+zv7UBVgHAdgHA2dHw6OyABxQODXoC/gMPPPDAazoeOxV2lqD4F7gZAiBt3f53tqj4VwVAq6eOYPD846XTqZcUTgx8EP4DDzzwwGtK3p/IppuKf5GbIQAyor3/FxkNsAoAFH8teO8pHPd4J/wHHnjggde0vA1013gqrxftJgGQtTv45xKRAEDxj+VxjyvhP/DAAw+8pn5L4LPTpk0pmwRA3q74jxAAXv8wBk+L4x5Xwn/ggQceeM3No7sAv5s2bWoXv/p3rB/DBACKv3a8isJBTyvhP/DAAw888MiezGQyY9yKxlYBgOKvJU9ZAMB/4IEHHnjNztt6omzRVQCg+GvLUxIA8B944IEHHnim33uIn/fjrwCAs0PhSQsA+tyd8B944IEHHngWu48s45sAgLND40kJALbQgxZ+3A3/gQceeOCBJ7C7EpYXzHkSAHB2qLyKTPFnWz7a2tL3wH/ggQceeODZ2O0Jy8uDLoFztOZVZIo/OyyoJgDgP/DAAw888IT2dU8CAM6OhFeRKf41AQD/gQceeOCBZ2ubyXZVEgBwdmS8ikzxZ8bWAMB/4IEHHnjgudidxumAl7j/8QScHR2vIlP82fdsFwD8Bx544IEHngtzkO4Yj5USAOyVwHB2ZLyKTPHnxz2uhP/AAw888MBzYnI7zFUAVIt/Es6OjleRLP4JVQGA8QAPPPDAa8riz+wLjgIgmWy1CAA4OwJeRbL4KwkAzfr7d7KHyVYZRp+7l9Y03E+3qbYa+5793Px7sibJW434Aw888DTnbSF7nucrdtTvs2QfujGNN/2aBECvrQBgv8iKf00AYPAi4lUki7+0ANCsvyyYFyk85lD+UuSdgvgDDzzwNONtoZ//lP79SLLRgryVJTuQ7BayD+yKv1kA0M/FAsD4RUMAMMPgRcarKBSvlTHs77MaFf8EPyTj74g/8MADTwdeOp1aSzV4V4W0tw3Zj8138q0CgP/bSAHA/tEqAPhbhTB4kfBSFYXitTKG/R3QqPgbXxXEH3jggRc1r62t7YbOzoltXvIf8c6m+r2Z1XBB8R8pAMzFvyoAWutabIBg8IVXUSheK2PY3wHNir9QACCewQMPvJCL/7fqzH/FbDZ7KgmALUZNt/zdmgAwnguYBQCKvxa8ikLxWhnD/g5oVvxHCADEM3jggRfubf/0qp122jFZZ/5jViTWlTb13F4AoPhrw6soFK+VMezvgGbFf5gAQPyBBx544fJS71DRnuJD/hsSANtv/xG2aHC9lACod48hBs/3YKgoFK+VMVzjsE6z4r9VACD+wAMPvAh4X/Mp/7H/L/D8t0RKAKD4a8erKMTAyrj1l5TuM5oV/yEBgPgDDzzwIuCxbdHTfcp/RVP+S5O95igAUPy15CkLgDj11yQAdCn+bPVsBfEHHnjgRcD7dYD57xZbAYDiry1PSQDErb9cAGhT/Nnn2GMXxB944IEXAe/6APPf6b4KAAxeKLyKwpXrnTFc47BOp+LPPj9cACCewQMPvNB4FwSY/z7lmwDA4IXGq8gGA11N3x3D/g7oVPwZpyYAEH/ggQdeqLxzAsx/+/kiADB4ofIqssFAL7i5J4b9HdCp+NcEAOIPPPDAC53XG2D+O7xuAYDBC51XkQ2GmgCIVX8HdCr+hgBA/IEHHngR8G4OMP+dU5cAwOBFwqvIBkNVAMSuvwM6FX/2Pd96ifgDDzzwwuatDzD/3e5ZAGDwIuNVZIOBrQGIYX8HdCr+nFdB/IEHHngR8XYMIP8VyDZZ2niRlABgbwPE4EXGqyhcud4Zw/4OaFb8E6oCAPEMHnjg+ci7MYD8d6a1jdICgL1OEIMXGa+iEAwrY9jfAc2Kv5IAQDyDBx54PvP+TraDj/mvRPaypfjLCYBq8U9i8KLjVRSK18oY9ndAs+IvLQAQz+CBB15AvCdGj27P+5T/bhMUf3cBkEy2WgQABi8CXkWheK2MYX8HNCv+UgIA8QweeOAFyaM1XT9ZsGDXjjrz36UG03jTr5QAYL/Iin9NAGDwIuJVFIrXyhj2d0Cz4u8qABDP4IEHXhg8EgEPdHVN7/KQ/9rIlluLv1kA2O4CMH7READMMHiR8SoKxWtlDPs7oFnxdxQAiGfwwAMvXF7qb62tLcfTv8vmwP3JnjbfybcKANttgOwfrQKA7QLA4EXFS1UUitfKGPZ3QLPibysAEM/ggQdehLwNZBeTLSTLm/IVe9XvPH7Qzxrz7j2jhguK/0gBYC7+VQHQircERs+rKBSvlTHs74BmxV8oABDP4IEHnma8t8k2km0W8cx38I2abnsQkPFcwCwAUPy14FUUitfKGPZ3QLPiP0IAIJ7BAw+8+PGGC4CEzXsHhAIAxV8bXkWheK2MYX8HNCv+wwQA4g888MCLJ88QALb1fKQA8PqH4ezAFoBUFIrXyhiucVinWfHfKgAQf+CBB158eVUB4PCZkQIAxV87XkWhcK2MW39pm8szmhX/IQGA+AMPPPDizHMp/iMFAIq/ljxlARCzfa7PaFb8E0x0If7AAw+8ePMS8gIAxV9bnpIAiFt/uQDQpvizz7HHLog/8MADr8F59QkAODsUXkXhyvXOGK5xWKdT8WefHy4AEM/ggQdeQ/K8CwA4OzReRbZ40dX03THs74BOxZ9xagIA8QceeOA1LM+bAICzQ+VVZItXW1v6nhj2d0Cn4l8TAIg/8MADr6F56gIAzg6dV5EtXjUBEKv+DuhU/A0BgPgDDzzwGpynJgDg7Eh4FdniVRUAsevvK2RJXYr/tGlTZlD7tiD+wAMPvEbmGQLgYjhHa977ssWL1gD8PKb9/TbZTLJOOyNxM3ny5M7ylCmT5xjGvmc/d/qcCm/MmNLu1L6fIf7AAw+8Bi/+7LMXsVryBfdfTMDZ0fFelr0SJt7j8B944IEHHnhuTEMAfMrtl9mJQnB2ZLyHFG6Dvwb/gQceeOCB51L8twqA9oTN+89rxT8JZ0e8VUOi+I+D/8ADDzzwwJMo/lsFAPv6nrj4t1oEAJwdMu9DsumSC+COgP/AAw888MATmfGmX5EAmG29C8B+0XiXsPFuYTg7dN63FFa/XwP/gQceeOCBZ1f8zQLAfHeZfZ1p/WVDADCDs0Pn/Y6sIFn8U3w7HfwHHnjggacH7wmyXevdnaSw24ntpPqO6E6+VQBYHy8bX19h/2gVABJvFUIw+Mt7jt36V9j3fjj8Bx544IGnFW+vCA45S5O9aezeM2q4oPiPFAD0h6gPqRPpF9+oCoDWuhYbIBg88f6LbKxiMDwG/4EHHnjgacUrR3TC6QbWDvMdfEMA2C0wZw1IkqXJ2iZMGD+ROsQWCPwWwRAKbyPZ9w3FqBgM/wT/gQceeOBpxytHUPzZW2E3GOv2zALAdocZ/aEWswAgy7Cfcd5osnlkC8gWuhndNdizvX3U/qNHtx9gGPue/Vzm803G252si6zVYzDkmNrD5AQPPPDA045XDrv4s89Rm5432lUVAK3OW8x5IwwBkDYVf+U/HvRZ7eAN+1qOyQkeeOCBpyWvHEX9SKeHCwDXM2ZMAiCF4h8b3omYnOCBBx542vLKUdQPQwC4FH+hAEDxjwfvQH5IECYneOCBB56evHIU9aMqAKR279XWACQ8fqFYh847LOFwdDMmJ3jggQeeFrxyFPWDrQGQbF9vop4vFOtQeUykfYlsMyYneOCBB572vHIU9YPtApBsXy+Kfzx4LJAewOQEDzzwwIsNrxxR/QhWAKBYh8ZjxzteRfY+JhN44IEHXqx4syOqH38ITACgWAfOK5EdSXaH00I/TE7wwAMPPK15p0ZQP9hdh8FABIAGxTVDdr6d0SBdkMlkLs5ms5cYxr5nP3f6XMS8r9LPv0H/viJRPXlxEJMJPPDAAy/2vA/a2tpuCrEe9ZG9pNDG3rhdWZcQXOCBBx544IFX3yuC6bMXxe22egmDBx544IEHHnh1FX85AcCLdVGTZ+olBAN44IEHHnjg1VX83QUAL9YFS8GOckFdCcEAHnjggQceeHUVf2cBwN8QmOdX/+2arKYvIRjAAw888MCLCe8p+ve7VY0+d086nV7V1lYz9j37ucPnHnRaRM5eCczMVQDw4p/lV/+GANBhK10JwQUeeOCBB14MeN+IoF4e7FT8zQJAuAuAF/8MWc4kAIqa7KMvIbi0571P9hz9fA39+2pVo8+tppdZrCG1a7LUGvbzgHi/InuGbBPGFzzwwPORt11E9fJFcxuTydYRAkC4DZAX/zS/+jcEQEGXQ3Ro3+NYBJd+PCqqT+Zy2fM7OsZ+dO+9F5Zi/K6FOWRnkD2G8QUPPPDq5JUjyn8bqu1LDL0SmJmg+AsFQIqszSQA8jol866u6dMCGLzNdEX4B7Ln+JXrevp3FXuhWYOffPZYe/uoTzboCY4LEqb3LyC5gQceeIq8ckT5bwNrh1H8zQIgYXcQEP2hJL/6NwRAVrdkPnNm13SfB++dMWNKe9fbPnLsUU0W/O/T3ZhlixbtXWqC45t7qL+bkNzAAw88RV45ivzH3gZYbd9wAZCwOwmQ3/o3CwC2BqBFt2ReEwD+DB4d03ibX+2j2+DrmiT4Xx09un3fZnp3A4nEhXS34yUkN/DAA0+BV44iX1GbnjfaVRUArc5HAfNGGAIgrWPxrwkA/wYvk2m72a/2scVlTRD8r40dO2a3Znxx04QJ43ci//0NyQ088MCT5JWjyFd0sTJMACTc3gVgEgApXYs/M7YGwM/BozsAN/vVvqoAaOjg/5Ce9x/YzG9tpDsf+7DHH0hu4IEHngSvHEW+MgSAS/EXCoAWnZM52wXg8+Dd4Ff7+Nayhg1+euvUJXhl8xDvbCQ38MADT4JXjiJfVQVAcmgXgKwA8FT4I0i+JZ8Hb7lf7eP7yhs0+FPrFizYtQPFv7rmk2wtkht44IGnKgDCyFdsDYBk+3oT9XxFkHxLPg/ech/bt7pRg79QKByL4j/s6yAkN/DAA09FAISVr9guAMn29cap+CsJAMnBW+5j+1Y3YvDT7aQ/mrb7ofjXvgaQLMEDDzwHmxdRvvpboAIgwuRb8nnwlvvYvtWNGPzZbObrKP7Cr/ORLMEDDzwHW0GWCTlfnaHQvt64Jd+Sz4O33Mf2rW7E4KeV7wei+Au/5iNZggceeC68N9kJs+ykWcM8njg7ZOxzDry/KLavN27Jt+Tz4C33sX2rGzD4P9x11/ljUfyFX2zh7CYkS/DAAy+OPCUBoEnyLfnsnOU+tm914wVX6vco/o5fTyAZgQceeDEs/uyzF8Ut+ZZ8ds5yH9u3ugGD6xco/o5f9yEZgQceeDEs/nICgCfLoibJt+Szc5b72L7VDRhcP0fxd/y6G8kIPPDAs+G9msvllhUK+aPoZTyH0b8fqmrsc+zzxWLhaMMceEfJPoqWEgA8WRYsCTPK5FvyefCW+9i+1Q0Y/L9C8XdYBNDS8jCSJXjggSfiUbFeEkG+GkP2nkTxdxYA/A2BeX71365J8i35PHjLfWzf6gYM/pdR/O155LMXkCzBAw88Ea+jY+z8iPKV8CAg9kpgZq4CgBf/LL/6NwSADsm35PPgLfexfasbNPjHofiP5M2aNWMK+W0zkiV44IEn4tF/50SUrzbYFX+zABDuAuDFnx1ekDMJgKImybfk8+At97F9qxs0+LtR/Efy6PbeUUiW4IEHngOvHFG+GiYAksnWEQIgIdoGyIt/ml/9GwKgoEvyZW8D9HnwbvCxfasbNPh/gOI/kkevku5HsgQPPPAceOWI8tWGavsSQ68EZiYo/kIBkCJrMwmAvE7Jt6tr+jQ/B4+S+M0+Lghb3aDBzxaUjEfxr/Ho9j+Lw3eQLMEDDzwHXjmifLWBtcMo/mYBkLA7CIj+UJJf/RsCIKtb8p05s2u6n4OXyQwTAHW1j45kXNPAwX8pin+NR+9H6ENyAw888Fx45SjyFXsbYLV9wwVAwu4kQH7r3ywA2BqAFt2Sb00A+DN4JgFQd/vS6fSaBg7+98m6UPwXjZ48edJHyIebkNzAAw88F145inxFbXreaFdVALQ6HwXMG2EIgLSOxb8mAPwbPC4AfGlfTQA0bPA/TLe+U81c/NlrkWmc70dyAw888CR45SjyFd2NHiYAEm7vAjAJgJSuxZ8ZWwPg5+DxNQC+tK8qABo7+Mlf/69Ziz8zEoyXIbmBBx54krxyFPnKEAAuxV8oAFp0TuZsF4DPg3eDX+1jawCaIfjZ8+9mLP7U7/OR3MADDzwFXjmKfFUVAMmhXQCyAsBT4Y8gmZd8HrzlfrWP7QJoluCnOwHfHj++I9MMxX+PPT46lvr7LSQ38MADT5F3aDSPyVPvSbavN1HPVwTJvOTz4C33sX2rmyz42atwd2nk4j927Jg9SE3/CskNPPDA88D7G9lnWGphRivxD6IDxA4bNap4uGHse/Zz43dUzMorFArHUr56XKF9vXEq/koCQHLwlvvYvtVNGPybE9WDghY0UvEfM6a0L131f5/6O4jkBh544DUorzdOxV9aACg4Z7mP7Vvd5MH1e7JryD5Lth/ZbmTzmdFilF1KpdF7UWHd2zD2Pfu58Tsq5jNvV1LS++dy2dNokd9yWsy5HskDPPDAawJeb5yKv5QAUHTOch/btxrBBR544IEHXkx4vXEq/q4CwINzlvvYvtUILvDAAw888OLAUxIAmjzDLfnsnB/51D62i+KPCC7wwAMPPPBiUPzZZy+K2+rtks/OGSQ7NVF9533JMHbeADt0iG2pMIx9z88hKFlsEtmVCC7wwAMPPPBiUvzlBAAv1kVNVm+XEAzggQceeOCBV1fxdxcAvFgXLAU7yq1bJQQDeOCBBx544NVV/J0FAH9DYJ5f/bdrsm+7hGAADzzwwAMPPDVjrwRm5ioAePHP8qt/QwDocGhLCcEAHnjggQceeOrF3ywAhLsAePHPkOVMAqCoyYltJQQDeOCBBx544MlZMtk6QgAItwHy4p/mV/+GACjoclwrW4WPYAAPPPDAAw88N15i6JXAzATFXygAUmRtJgGQ1+msdrYVD8EAHnjggQceeM48o/ibBYDtQUBUYJP86t8QAFndXtTCX3WIYAAPPPDAAw88R95wAZCwOwmQ3/o3CwC2BqBFp+JvetcxggE88MADDzzwHHmGAGh1PgqYF1lDAKR1LP41AYBgaDLeuWSLZIxU7n70XuxD2ttHfcow9j37Of37dzAe4IEHXvPwqgIg4fYuAJMASOla/JmxNQAIhqbjlXyKv8UYD/DAA69ZeC7FXygAtC3+7Ht+Fj+Cobl4JZ/ibzHGAzzwwGseXkJaAHgq/GEWf84rIRgag5dOp38zenT7Afl8/pRcLndKa2vLCfTvxwss7VP8TbXhG3YM2XyML3jggdckvN5EPV8RvCWwhMFrGN4HbW1tP2prS99CP/8P+vebbCznU/zNd/gbQ0btuA/jCx544DUJrzdOxV9JACAYGoZX8in+FmM8wAMPPPDqFAARFX9pAaCJsx8iYy9b+KLV6HPnZbOZC2lNQ2/NMheyn1t+93KyPzZwsN4h8o/FMj7FX9nubzC/ZzKZXnossQbJAzzwwGsSXm+cir+UANDE2ct89F8b2Q0NGKxP6iY+t9tuzmQkD/DAA69JeL1xKv6uAkATZz8QgP/YIs3/abBgfZPsK2Tnu1jGp/ibbWVTOy6gK/+L6Q7MJcwymbblSB7ggQdek7woqDdOxd9RAGjk7M8H5L89ya4yjNpxNS2iu46K1vWGse/Zz82/ZzF2J+GdmAVrySf/LUbyAA888MDbyrwoTsXfVgBo5uxPauy/BFd9uvjvCbLlLpbzyX87GUxqxw0klm4m0bTVaDfCf9LPX0TyAA888Jqg+MsJAJ58i5oUr1IMnH2wxsWfffVo4r/1ZEnNxGcnkgd44IHXBMXfXQDwZFmwJMwoi1cpBs4+WOPiP0wAROy/P7gJgAj8Nw3JAzzwwGuC4u8sAPgbAvP86r9dk+JVioGzD9a4+G8VAJr4bwXZoSKjF/gcVijkj1qwYNcOP/xHt/wnMV6xWDjaMPY9+zv8b7I1AmsaYLKzxyp30+fuoW2Nq+jRxlZj39PPn5JgMHF2t9nMPPrvQ+wgJ5f2bSL7mZVj4v2UGG9L9PcXdgxuz0r4b8CF8TDZZpfxeIP6fS/zgw3jp2T/6zy+qfeI8XPLeFh56yXGZ43D+N7DFwz/3YXxF7vx5ayfU/83u8Rfhew+m/Ed4lGfX5OI51+7jM9vJObHSy6M+8k+dJ5vqXfo56scGMy3L7vNX+r3aofxZfZcFMWfvRKYmasA4MU/y6/+DQGgQ/EqxUBpHaxx8R8SABr57xU+MYcZfe4BVmSYsa15fviP3gx4oME0jP0d0999kOzdmBd/trWyRSJernVg/JAs5RZ/Y8aUFlL73rRhsEQ71y2eaUw+6dLf/5AY3hR97lEH/12oukjUOh7pdOpPU6dOnikRf2PIHheNL8Xbw9OmTSlLzt9TybbY+PUwyXww00HQsiKXdcsv1O5+hzgZJNvDLV9RnOzlEs93uC7e2WnHJBNfLvOjLDHG7K2gW2yK/0s0zttIMAqJ6hkvwvlLu4m+LDG+zPd/iqL4mwWAcBcAL/4ZspxJABQ1KV4l3W+zkIMP0bj4J+jM/ZM18d+fyUZrtmBybsxv8y2X7O8MB8ZcBf9dacN4WHY8qL/vO/T3CJnxpaR7to3/2FWhyntOfisaD9oq+hWF+NtPML5bttlm+gzFeP6JwB/fVYxnu0daH5Uc3y87xMljsvONX1nbcY6Tmb/5fG6pw/x4TXaA6XO/tplvX1aIk33s5u/06VNnSY7v98Iq/slk6wgBkBBtA+TFP82v/g0BUNCleLG3Aer+zKZQKPyzrsW/miwzF2jivwENd0uUYv7M8FrJ/o5z4HQp+K/X4QpTtji85dDfQ+WKQ/5UG/+tV4kXhzsJ5yhg5gvGd9BDPN8kGN+rFeM5ZePXj0iO7yUOcXK/7Hyjdr/uwOmWmb/0uO5Eh/nxsmw+oKv8R2zm2xcVxnhHu/k7e/asSXWMr8/5IDH0SmBmguIvFAApsjaTAMjrVLy6uqZPiyD5sltdz/NkYme/o8/dT7ep7qY33B0UVPEi9r7Uxu35BFYy9jm65/pxauN6jYrXV83tGzt2zG7jxnXsbtikSRNn++m/8eM75jr4j03qlXFeMETrHG6UnG+uAkBy/koLAIfisNGhLYfKjG9NAIzw33qVeKHi8JjNeCxTFQCW8R30kA9uEozvdYr51FYASI6vtABw4SkLACuvKgBs58fLsvmA8t+jNvNNSQDYzV+KxXav4+t3PjCKv1kAJOwOAiLnJPnVvyEAsjoVf/b5mTO7poeYfNkCl/NEt6mjunKl9m1qstWuvh0XPGvWjCmN7j86z+BGyfhzFAAK8SwlAFx4ygLAyqsKANutpgmF4rDaZjyUBIBgfAc95IObBON7vWJ+EQoAJoIlx1dKAEjEi5IAEPHoEcAJDvPjZdl8UBMAI+JFWgBQQZ3nMH+LXsfX//wyXAAk7E4C5Lf+zQKArQFo0an4M05NAISSfI+Pur8C3qZE8211uZI/y+yUMVp9O3ny5M7ylCmT5xjW0TF2Z+Ld3ejiia4Q+1l/Wf+ZHxz8tL3988LkAqv/HHiX2XAedBoPC+8th/4dLzO+9GjwXBv//V4lXqg4rLUZj4tk448S7YGC8R10GQ+R3WodXxIA35EcX8OmiOJl1KjiQZLje4XD2PyP5Pgye8OB8zm38WXfU7tPcWC8KpsPaIwft5lv/y6bX8h/n3SYvzO9jq//+cUQAK3ORwHzomMIgLSOxb8mAEJJvi/LLB6K4Jn1piYr/uCBBx544HniVQVAwu1dACYBkNK1+DNjawBCcvZaDYu/kgBA8IMHHnjgNS/PpfgLBYC2xZ99z3YBhOTstRoWf2kBgOAHDzzwwGt2XkJaAHgq/BEUw1JIzl6rYfGXEgAI/qbhvUq7Qj7BTkrcffddxnR2Tmzji76UjH2OfZ5xDAMPPPAi4y1MVM+vCCO/9Cbq+YqgGJZCSr5rNSz+Cb5drWhnbAsK24e67bazpxjGvudbU9jvTCV7GsU1/jzJE8d0fIwFHnjgOfO+GFJ+6Y1T8VcSAHU6Z20DB9e5KK7x5+VyuXOQLMEDryF5PSHll95EzJxTCin5rkVwoVjrzKM7AMuQLMEDryF5PSHll964OacUUvJdi+BCsdacdxqSJXjgNSSvJ6T80hs355RCSr5rEVwo1przliJZggdeQ/J6wsgvSgJAE+eUQkq+axFcKNaa85YiWYIHXkPyekIo/uyzF8XNOaWQku9aBBeKtea8pUiW4IHXkLyeEIq/nADgnSlq4pxSOMk39WQDB9fZKK4NwVuKZAkeeA3J6wmh+LsLAN6ZgqVDUTqnFEbypRdGPKljcBUKhVE+8O5CcW0I3lIkS/DAa0heTwjF31kA8DcE5vnVf7smzimFkXxNAkCr4KL3la+hN76tqFl6BbWbvVWqX9LuRXFtGN5SJEvwwGtIXk8QxZ+9EpiZqwDgxT/Lr/4NAaCDc0phJF8uALQLLmrbuyiG4LkJACRf8MCLL6+1teXkoIq/WQAkRLsAePHPkOVMAqCoiXNK4STfoTUA2gVXTQCgGPrMu5HsTBe7lGxQo/4uRbIED7zG4+Vy2dP8LP7JZOsIAZAQbQPkxT/Nr/4NAVDQxTnsbYAhJd8XdQyuqgBA8VfjpV6nuLmYrLdqmQvp5+clqudtMztdXpm3LmGfr7G28q6if/4g5P4uRbIED7zG4+XzudP9yX+JoVcCMxMUf6EASJG1mQRAXifndHVNnxZisdlPt+BiAgDFX41HayVuC2myfzPk/i5FsgQPvMbj1QRAffnPKP5mAZCwOwiI/nCSX/0bAiCrm3NmzuyaHmKx+SvZfJ2Ci9q3CcVfeUHnerpSvySTyVxMP7+A/v18i50uOx70VsVTGEvAYxNpIOT+LkWyBA+8xuNVBYAf+W+4AEjYnQTIb/2bBQBbA9Cim3NqAiC0YjNIdifZl8iWiYw+dw7dBj6fisKXqChcVyqNXhRgcF1IdpWKUfuupqvg6zKZtuvJbqb+voPHCMPsL7LjQWJitUb9XYpkCR54jcdjawD8yS+GAGh1PgqYN8IQAGkdi39NAOhdbGiv/j/rHFwkUv4dxV9OAFj9VxUA2vR3KZIleOA1Ho/tAvAnv1QFQMLtXQAmAZDStfgzY2sAdC82dKvlkOYIroZ5jPAXWf/ROQyPadTf05AswQOvIXk9fuQXl+IvFAAtOjuH7QKIQbE5uBmCK0bFnz3GuZ3sNhu7VmENxqO69JfmwjIkS/DAa0hejz/5JSEtADwV/gicU4pB8Tq4OYIrNlf+d/nov0d16W8ulzsHyRI88BqS1xNSfulN1PMVgXNKMSheByO4tOLd4qP/HtWlvyYBgOQLHniNxesJKb/0xqn4KwmACIvXwQgurXgvkC0i29vGdlfw36O69JcLACRL8MBrPF5PSPmlNxEz55RiULwO1jy4zk3g3IBhiwAV/PeoLv3lawCQLMEDr/F4PSHll964OacUg2LTE5D/2ALIeWQ7mo1Wes4bM6a0YOzYMXsYxr5nP7f+LtmeZM+i+A/j/UVhPB7VqL+nIVmCB15D8npCyi+9cXNOKQbF5r8C8t83UKwDeVfAXxXG41GN+rsUyRI88BqS1xNGflESAJo4pxSDYrOZbC+f/fdxsg9RrD3xtpC9bDX63MvEeIUO9/mNwnjcKWKRvRlBf5ciWYIHXkPyekIo/uyzF8XNOaWYFK+3EtUz5qeyNrPzC9ghRuwkQ8PY9/xcg5KDbUfWR1ZB8ffM+34Y8UzHLd8ccn+XIlmCB15D8npCKP5yAoB3pqiJc0q4bQ2eIu8hsgJZltno0e35HXfcbvy8eTtMNIx9z35u/I6Ksc9NmDBuh9p7AkLr71IkS/DAa0heTwjF310A8M4ULB2K0jklFEPwwJMTAEi+4IEXS15PCMXfWQDwNwTm+dV/uybOKaE4gAeeuwBA8gUPvNjyeoIo/uyVwMxcBQAv/ll+9W8IAB2cU0JxAA88ZwGA5AseePHlsRe2BVX8zQIgIdoFwIt/hixnEgBFTZxTQnEADzx7AYDkCx548eblctnT/Cz+yWTrCAGQEG0D5MU/za/+DQFQ0MU5bNU8igN44IkFAJIveODFn5fP5073J78khl4JzExQ/IUCIEXWZhIAeZ2cw7bOoTiAB95IAYDkCx54jcGrCYD68otR/M0CIGF3EBD94SS/+jcEQFY357D98ygO4IE3XAAg+YIHXuPwqgLAj/wyXAAk7E4C5Lf+zQKArQFo0c05NQGA4gBe0/OWIlmCB17j8dgaAH/yiyEAWp2PAuaNMARAWsfiXxMAKA7ggccEAJIleOA1Ho/tAvAnv1QFQMLtXQAmAZDStfgzY2sAUBzAA2+IdxqSJXjgNSSvx4/84lL8hQKgRWfnjB/fkaF/Xqxq9PzjiHw+f0yhUDjWMPY9+3mD8JaQnZmovjHw5xQM76K4NjaPdsQsQ7IED7yG5PX4k18S0gLAU+HH4OnJo/PtxxWLhaPoBTV3UDB8iOLaeLxcLncu5gd44DUk77Mh5ZfeRD1fGDz9eRMnjt+OgmE5/fNgjIrhe2Svkb1K9nYDFP93yF4le53sfT/aRy8femCfffYYg/kBHngNxWMX4/eElK96UfybhzeP7AkNi/+z9O/XkB3P2zhK0D326Gc2f9zxVbLV9LnNGhb/zWS/JLuUHt8s7ugYO3+XXXYaLxgP1sedyE4ku47s997al3qSfn4d95+S0eeupTtEN2YyNWPfs5+DBx54kfF+FWK+6kXxby5eGw+yqIv/GxT836RFKnO99nfSpImzabvMl9Lp1O81KP7ryP6FbGId48t8cQXZG3jMAR544IXA6/W72LB3pB9Edh7ZV8j63IwafSmpocsLhfyJKNah8c6JKFhfo6J9/vbbbzvBr/4uWrR3iRZMHkt/5+kIJtNTZP/Eb9v5Nb4FsnPJXkdyAw888ALk9fpSbGjV+ihe8N/02hm6IlyBYh0q719CDNYtJPJumD175tQA+5skO4vsnRAm01uJ6kE8rQGO7xhqxw3Uni1IbuCBB14ArwjurTv58tu4v6+3M1wAoFiHy7s6hGD9W3v7qEND7O9MsscDnEy/INsmrPEdNaq4mC8glGkfuyNxlcjoc1fTHLuOhNj1ZDc78G62Y1h59PjlcRv/vSDD4PaB3XjQQsd72N+RYKwSj2/qTd7fIWP9d+H91cavD1v858S7VfD5LS7jIeINCDhPSo6vwbveJl5ukRzfNQ7z40WFMX7fYb7dI8m422H+vic5vsz+YpMPHpEcX2bfc5iD19YxvmEWf/bZi/wo/m/4oWTa2tIrUKxD56VYsQyq+FMCf2LKlEnbRtDfNp7k/J5M3yZLhz2+kyZ1bk9t/K1E+66R4W2zzbSZDv3tkm1fNpvps/HfKoXubrQbD1pIeZgk43hx/KWeUxyPR23i5RyF8Z0vYAx6iJebBJyrVOZHZ+fENps4+Yjk+F7mMD/ulx1g+tzrDvOtWxLT7TB/X1GYbw8lhOdqZC5UmL87OszBYh3jG2bxlxMAvDNFa2doH3KJ/vl5H29j3CoxeCyge8zGjk1kZyezFygYxr7nxyn2qFoMeafR+omjyY8zvBQbEnE70Gc/CKD4P7LttrOnRCx2LvdxMn01SnFH4zya/vl/VAWAiDdt2pQZDv3tkm1fTQCM8N8qheKw0WE8DlUVAMO3Sm4VALLj8ahNcThfYXwdBYBCvEgJABdeSlUAWMb3Mof5cb9sPLNFvw7zTUkA2OyGeUVhvj0kygd0sFavwvy1FQC0Hqm9jvENs/i7CwAeDAVLh4zOXOvzM4x+icEr4RmQI28t2ZGqxSaTyVzjc/Ffvf32H5nUQI85Ltfkzk7R5fHGNTI8uh05wYHRJdu+qgAQ+m+VQnF4y2E8lASAdXy5AFAZj0cTwkOXshcojK+tAFCMF1cBIMFTEgCC8b3MYX7cLxvPwwXACJ60AHCYvy8rTLOHRPnAJABk4mVHu/w3e/asSXWMb5jF31kA8DcE5vnVf7ulM9PI/u5z8VISACj+jrwfkuVli031lnDqPX+Kf+oP9M6GLo0ec7Df/3Ed47EiYVrlr8FjnfH8GbuorbdK8vZz6O8/y7aPhN5/2/hvg3WBpIjHkiWNw2aH8ThV0n1ftrkyfJ/aOE2SwXZfvJYQL1DuVxjffxH5lT3OUIiXos26ql/zu6Cy8XKCzRifKDO+bKuuw/z4ExcYjvE8f/7cCdXTSG3n2zmSd4rOd5i/7yaqi4Ddvth5In+zWYP2Q4X5+3m7/DdmTGkfyXzw07CLP3slMDNXAcCLf5Zf/RsCwNyZfwugeEkLABR/Kd4DRrKQnOw3+9C+98eOHbNXHcWQFdpt2SE6dNV1Bj1mOpseb5xEk2pfSiQdXosru31ObXvew3g8wwuD12LNEs5uZEeRnZKoHvHJnmvPSdS3dXBXsg8F7d3Ekjv57yA6CvowWkB4uGHse/Zz+veT7BZCcWM7edhuigMMs/Lo/4+mwrrSxX9sPn/CzLHwFrOk6zIef+JXiAc42Bn0uU0O84M9pvyMC+MI89W/YL5tobZeTe0+2IHB+vp10YUR533IDn9hvrOMh5XDRM96B78+Tp87zmF8D+Ai7nt88aGIwQrm+WQHisaXGc27T1O73RZ330l2iM34DvGoz//pMt9e5XdwbMeHPfZkCzpd5u83Xcb4UGOxqEM+ZSemOo0x89fFbFFjwv6EzvVsS7vD+B7AReJgFMXfLAASol0AvPhnyHImAVC0JKPHAyheUgIAxV+J9w35BZ2te9XbPrqNdqHH4r87X2D3qkN/2fHAK8kOd7u6FPV39Oj2A2tXm1L+G+SFVrX4J/ljmLusicJir5DdQGswdvN4J+FLCWxlAg888FyMcvsIAZAQbQPkxT/Nr/4NAVCwJCP2/5UAOuMqAKjAjEUwKPHY0bRzJYtXi3F7zEv7SPn+do89PjpWsfjPNt8KU+gv20Kzv+ptdboauUnBf9/0UPw/6XL1JvQf7YD52YQJ43dSFE/s9uvvkCzBAw88MS8x9EpgZoLiLxQAKbI2kwDIC5JRR0Cd6XdL5vRseRqCQZn3PYXbzN/32r5Ro0Ydplj82a6G9+rs7zftnkM6rH5/W6J//8sfN8kWf7Y18Po6x/ddeuTxWcU7J4cgWYIHHnginlH8zQIgYXcQECWeJL/6NwRA1iYZdQbUmX63K7mZM7umIxiUee/Ss7iC5G3mL3hpH1v1r1j8e33s713WtQ4uxfprEsxLFHg5svt8HN9/VVzisAbJEjzwwBvJGy4AEnYnAfJb/2YBwNYAtNgknM6AOtPvdiVXEwAIBhVesVj8lOQz5kO9tI8W2R2vUPzPCqC/KxRu009OOL8amZ1MN0GSx+wnAYyv7Or3BFsQhmQJHnjgjeQZAqDV+ShgnuQMAZB2KP6OAqDOzvS73catCgAEgyqPVtSfp7C6XPWVtK+NH9+RkaxXC8yrpH3u7zKF1fR3OXB+qCAmLgxofNkK/11k1jjMm7fDOOJsRLIEDzzwhvOqAiDh9i4AkwBIuRR/WwHgQ2f63W67sjUACAYvq/Mzl0kuMNvWQ/u+LVn8kwnT+dcB9Pe9CRPG7SB5p+MEB9ZRksV/Dr9bENT4Pum028HcPtqi9gMkS/DAA8/Mcyn+QgHQIpHIOwPqTL/blRfbBYBgUOfRSX+XSz6jL3to32JJAXBS0P2lQvg9yTsd4232SLNHA6Ml7yT8IITxPUZmgSPtO/4MkiV44IE3nJeQFgAtCfmvzoA60y9x5VVCMKjzaPvb5ZLP6Mse2jdOMm5+HUJ/K9tsM32GpNhZJ+A9JVn8J7msI/BrfFfL7G6gl77MQbIEDzzwFHm9CQ9fnQF1pl8i+ZYweJ54l0qObVmxfS9KcueE1V92gqCk2LlVwPtPyTUEZ4c4vl2SaxJeQXIDD7ym4m2hz2+pg+ddAATQmVslkm8JweCJ16cqACTbJ/tK0NNC7O8PJNt0sZVHj0oullxDcGeI4/sZyTUJjyBZggdeQ/PYQW3sxWQH0uPOzkWL9h7KAzNmbLMNnXT6CcpffcRbr8DzJgCCcA6dhrZCIvmWEAyeeEoCQKF9t8hA2RnbIfZ3QLKvn7Py6FWen5dcQ/DHEMf3KsnHErchWYIHXkPyXidbmpB7EVQLX5e1IRABQIV6ckALuFZIJN8SgsETT1oAKLbvapmtanRQ0E9D7O9Gyb4eaeXRCzyWSO6W+DDE8b1D8rHE9UiW4IHXcLxH+Joj2a3Jxlde9JizLgHA/sjkyZ3lIJxjEgBOybeE4PLEkxIA9Pk5iu27wi1e2HiSAPh5iP39UDKc/2nkccbFIyWKfzLM8SXf3Sf5WOJqJEvwwGso3r1kWQ/F3/z1LV8EgPHHp0yZPCcI53AB4NaZEoLLE69PZnw7OsbOV2zf1XL71NP/HWJ/N8nEM52g123l0Xa6oyUXEG4Oa3zJd/dITvbrkXzBA69heOxRZqHO4p/gjwTutGnjRUrFn/3RmgDw1zl8DYBbZ0oILk+8PpnxHT9+3M6K7fuuzD51EhYL6Or6ECq6+9E/L1I19jn2+fb2UZ8yzIG3p0w8026BM63+o/eOnySph/euo31K/SXffVRyst+G5AseeA3BY1uMd/ah+Btf4/g6gmFtlBIA/I8XjT9cFQCBOOdWiY6UEFyeeH0y4q4mAKTb94DMPnXFYA2Fx05HFPjvAl3a54H3KJIveOA1BO87AeSXcy3F310A8D8+7E1ybA1AQM7pVxUACC5pXp9MsakKAKX2/SWOxZ8fn3u7wH/fiWnxZ1+vIfmCB15D8HYOIL+0k71nKv7OAoC/ITDPr/6NRrSzXQABOUdJACC4lHh9MsWGrQHw0L4JcSv+zNLp1AaB/34b0+I/HckXPPAagrchoPzSQm8F/Al7LbCrAODFP8uv/g0BYPzxzoCcIy0AEFzKvD6ZYsN2AXhoX3fcir/DYyy2uG9szIo/+zoByRc88BqCd0tA+SVL7TrfLACEuwB48c+Q5UwCoGj6450BOUdKACC4PPH6JItN2UP7vhOn4s+MFgCe7uC/42JW/IctAMT8AA+8WPP+LYD8wu7k5+ix56cNASDcBsiLf5pf/RsCoGD5450BOcdVALC3ASK4PPH6JItNWb19qY277LLT+LgUf/Y9tfteh379JGbFnx34sQnJFzzw4s+jxckX+JxfjBqeo6OCD7a0bYQASJG1mQRAXvDHOwNyTr9bZ7q6pk9DcHni9UkWm7KX9tH++RPjUvzpYJ3pCcE+/sTwg4QmxGh3w4lIvuCB1xg8usi9xMf8Yty9L/A7AIcn7A4Col9I8qt/QwBkbf54Z0DO6XdLljNndk1HcHniXSpZbMpe2kdF9eE4FH/O+4pEHy+I0e6Gx5B8wQOvMXj06vZv+5hf2k0CIEt/5zShAOC3/s0CgK0BaLHhdwbknH63ZFkTAAguFR4F1eWSxabstX3JZHJBDIr/KLI3JPzG3rqVi0Hx3xfJFzzwGodHF1O/9jG/GAIgz+v5f9gJgFaTAEg7FH9HAVCnc/rdkmVVACC4VHn07OdyyWJTrqN992le/NnXxQr++1fddzeQ3x9F8gUPvIbibSYRMNWn/NJuWsPH3mHyspsASLkUf1sB4INz+t2SJVsDgODycltpqwBwKzblOtt3hMbFv4vsXQX/vd3ZOWFbXYs/reY9DskSPPAakneJT/nFvHvvnxN2LwMyCYAWib/VGZBz+t2SJdsFgOBS53EBIFNsynW27yWyDg2LP4vr+1X9R4de3atj8afFPJNoDF5HsgQPvIbkvUk23sf8kiJ72kkAtCjkn86AnNMv0ZkSgkudx9cAyBSbsg/tu4cXXJ220l3o1X8kOi/UqfhPmzYlPfz1yki+4IHXgLzbfcwvdo8+L/SSgzoDck6/RGdKCC5PvEslx7bsU/uu1Kj4H0m2pQ7/DdLt9sN0WeBIV//fRjyDB15T8C72Kf/ZbXs+z7MACMA5t0p0poTg8sTrUxUAPrTv3zQo/p8kq/jgv/fI9o+6+NOdnCsQz+CB11S8r7IlPx7zS0+ieq6JHXuJJwEQhHPoeesKiWRZQnB54ikJAB/b900WvBEV/+Ndgl91PJiQ+HRUt/3pyv8mxDN44DUl70GybRXyCzvI7LsS3C4PC5DSk4NwDiW4FRLJsoRg8MSTFgABtO/eqVMnzwyx+KfJrghoPLZwRZ4Kb8FfejI7aAnxDB54Tc0bJPsBPY785Lx5O4yz5pdZs2awnLQH2TUJfjS4i631lHwnT+4sB+EckwBwSpYlBIMnnpQAYG8DDKh9r9JxwZ8JofjvTvZkCOPBJs/OwW/1azkBq/3BAw88C69CFwUDZA+S3U8/X0P//o4i7yhPybf6KlX/ncMFgFuyLCEYPPH6ZMa3o2Ps/CDbl06nHiMFu38AxX8O30WyJcTxYAtrvkM2K4DifyC1YzXiGTzwwAuAt0pp9585udUEgL+d4WsA3JJlCYPnidcnM77jx4/bOaT2PUHGzqUe57X477jjduNJTHTzbYdbIhyPzfS5n+Tz+WPmz587oY7iz/b9nkH2G8QzeOCBFxDvWcqb4/i5P62yybdoJLaqAAikM7dKJMkSgsETr0+muNYEQGjtY8+1fkn2NTJWzLcnK1jbR4W1Y8KE8fOKxWI37cv/Mt32uo94mzQcj00kZFfRwUsX0yQ7hP59Bl+TYP1ifdyBLyr8Otlj3BeIZ/DAAy8o3vOUl6bxE3/dBYDpfcJbr77YGoCAOtOvKgAQDNK8Ppkr66oA0KK/bNvda/S5V4nxTszHg92deJvsVdYn3jckI/DAAy9M3otU/GeY3vfjLAD4GwLz/Op/69uF2KrkgDqjJAAQDEq8Ppnb6mwNAPwHHnjggddQvJeo+M/mb/ltMwmAFqfin+VX/0XTu4WZYugMqDPSAgDBoMzrk1lQx3YBwH/ggQceeA3De5WK//a8nmfNAsCp+DOlkDMJAPNbhToD6oyUAEAweOL1Sa6mL8N/4IEHHngNwXuDiv9O/E5+ziQAUk7FP81/0RAABcuzgs6AOuMqANjbABEMnnh9klvVnAQAe369OlF9q94vyP6MyQkeeOCBpyVvYzLZuruphhsCIO106z/FFYIhAPKChQKdAXWm321BYlfX9GkIBk+8Psl96lYB8CLZBWSzReMxadLE2blc7hxalf80xgM88MADTwveO1T89zLdvTcEQMap+Ce5OmgzPS8QrRLsDKgz/W5b1WbO7JqOYPDEu1TykBpDALyfqL4pqk12X34+n+uhv/MKxgM88MADLzLee3Tb/+OmdXuGAMi6LfozC4CMwylBnQF1pt+t2NQEAIJBhUdvkbtc8oQ6JgD+TLaTxxP5WGw8jvEADzzwwAudV6Hi/wnzrj0uAPKOp/7xpJ407RF0OiKwM6DO9LsVm6oAQDCo8rLZzNclT6gbzw+v8VL8ja+irAjAZAcPPPDA84X3IRX/wyz5uV2whs9RAKQkzgfuDKgz/W7Fhq0BQDCo82jxZG9Ir+A1viaRvYLxAA888MALnLeFiv/RgvxcVDnuNyn5coDOgDrT71Zs2C4ABIM6r1AoHBdi8Te+jsV4gAceeOAFzvt/db2ITPqtQAIB4GNn+iWKTQnBoMzbMmXKpJkhF3/2xWLqaYwHeOCBB15gvDdnzNhmql+vIJf5mhBQZ/olik0JwaDGo1fwPhJB8Te+zsJ4gAceeOAFw2tra7suzOKf4FvDNgfQmVslik0JwaDGo2dDiyMq/uxrOsbDM4+9POjfyJYyo8+dRo/AlrFzFwxj37OfG7+jYuA1HI+9Svqb/OwOu/hjefv7XJjDf/ryziT7vkx+aW8fdWiYxb96b7el5Rn/lUx6hUSxKaE4KPHuj7D4G1+vYDw88Y4IaDzAa2xeG8XZbTbxdzb8Fyvecrf8MmvWjGmhFn/2R+i2w7f8TpbEXCHhnBKKgzTvz3w1fqTBT+34FcbDE28mkiV4XnjjxnXsZBN/k+C/WPE+7ZJfPgi9+LM/Vn1vfGrQz2RpEgBOnSmhOEjxnqV/n6VD8NMahF9gPDzxupAswfPCmzJl8hyb+BsH/8WKt9glv1RCL/5GRzKZzLV+JksuANw6U0JxcOKl3qWfX56oHsajRfDX3hOA4q9i9PmZSJbgeeHVBMCI+BsH/8WKt9gl31fqKf7Su/9EnZk3b4dx1KhH/EqWfA2AW2dyZNdYjXjXkoC4kY683Wrse/Zz0e+7Wcx4N9BJf5fl8/nj6Dz+0R7igBXpqUEE/6JFe5dobN9G8Vfn0V22HZEswfPCqwoAYfyNg/9ixVvskl8qXgs/P/dH+pCgok1n2JXmXT4ly1sRDJE8o785l8ueFkT7xo4dsxeKvzfexIkT5grG4wCyHknbzzoes2fPnEoi8XQ23q2tLSdLciZbx7e9vf3jjGOYC+8wh3A5gX2OfV6Ct60NY4759xx4Jzi04wi7/lt5pdLoj9nMj04Zfxq8bbedPcVmvn1cYYwPEOWDyZM7yzbxZycADpDwHxuPfW0+P1rWf8ymTp1sdy7JQln/FYuFJQ756iRJ/80S+W/MmNLuCvPjWLv8VyjkT1CYb7uIBIBLfql4LP4pKQHAO1MQnC9s/SBz+PN1Jst+FOtweSwpVhdgplcF0T72DgIUf288kwAwj8fdCryV1vGort1Rbt8B1vGlu07XK/T3KQfxWVHw31IbzOckx2OTQ+iulx1f6vs3bObHIh/Gl33drhAv94jyAc3nyTafsRMAd0vGs12O/ojK/KBX1e5pw7lG1n901/JJh3w1KOM/lv9E/qO/c47C/Nhol/9o/dPzCvOtb2R+bj3CZTwqHoq/8b4fZwHAfznPr/7bJYoD+/k+ZBeR3UL2Y5aEDKNG30mDdjcF5z2Gse/Zz/nvLEOxDrP4ty5iz5B4YA2y4uBn+3bccbtO4r6M4u+NxwuEdTzuVuDdaY2Xjo6x8z207wDr+NYEgFR/n7KLF1P8yfjPUQBIjIeSAHDgfd2GsciH8ZUWAIxH+XOVw1s5lQSAZDxLCwAX3kJVAWDlcQFgl68GZfxHe/FPsfHfMlUBIMrP1M7nFeZbn3V+0GPdY1zG433F4p/hb/tNOx79z385y6/+i6Z3C6O4Nk7xf2f4iYHpn/jZPlok2ofi753H1wC0iq7UJIvD3dZ4Ie4cD+07YOQCYCYApPv7lF28DBcArjxbASA5HtICwIV3maoAUBhfKQFQ2zpte+dOSQCwOwmS8SwlACTGQ0kA2CyAe9IhXw3K+I8K7Kk2/lMSAHb5mf7OBgVOn3V+0DtcjnUZj7cU8nOW21YB4KYUciYBUKyzOJhFRDt40fEoiI5PJpPvVydUkt+SY8E1FFAn+tG+UaNGfYx4H3grhomh9ti0r2l4bBeA3a1aGR4XANZ4Kau2j8TigdbxpcJzrUJ/n7KLl6oAkPbfUpt4PkVyPKQEgMT4KgkAxfF1FQBmHr8DIMoH0gKAb9VdJRnPrgJAcn5ICwB7Xstah/EclPEfvwMg8t8y+fnbstEhPysLAPP8qN4BcByPdZL5Oc/ruSEAUm7PCLImAVCos3iZRUQRvMh4oyhYb2LBZDVTQFXMz3y9tI8WSc2jYP2bl2LIzKV9zcTr8iIADAYl9bsF8aIsAGgR06HW+KM4ulqB8ZRdvFA7Kwr+WyqKP7rTdIbkeEgJAInxVRIAiuPrKgDMHFa4bfKBlAAwxoNxJOPZVQBIzg9pAeDA8yQAzBw6ivdzNv5bpjB/33LIz0oCwDo/SKAscRmP70rm54JJAKSdbv2nuEIwBEC+zuKVNzWgAF4kPHarp4fsL7T4xjKZWkVBxUTASV7aRwF7UKJ6hr3HYijVvmbhKQsAM4+uMO8SxEtZtX1cAFjj7ypVASCKF+JXFDhLRfFHjyPOkBwPVwEgOb7SAsDD+DoKACuPrg5/ZpMPXAWAeTwoVn4mGc+OAkBhfkgJABeesgCw8ih2PmPjv2UK8/cth/wsLQBIVF9qnR+0iPpol88drpCfc/zOvm3xT3J10GZ6XtDisXi1mEREzqQ+wAuPx1YCfzHBd2fQrdwR5hJcbBHnbJn20fPMaZRErqN/2uy1GHpoX6PzlASAlUWJ6S5BvJRV20dXSZ8SxJ+SALCLZy42lQWAmUfnYZwuOR6OAkBhfKUEgMfxtRUANry7bRiOAsA6HhQrP5OM536bNUXbKc4PVwEgwVMSACIeFV27raHLZOcHiYC3HPKztACg/HmZdX5Q+45w+Mx6fnFXf/0wHQxgCIBMncUrYxIR2SB4FLTj6Z+nqhoN2DR6g9LM0aPbZxnGvmc/jzGPJXa2teZ4sivJfkW2xYfixQo6O+eB7WFlC8iGbh/tvvsuOWrTbHoWfAyNw/eJ916TF+sgeNICwIa3UvD5smr76Bb7IYL5qyoA7PKBsgCw5gN6Dn6a5Hhssssv9PlnFcbXVQDUMb5CAeDAUxYAonxKueWnkmPQL/IfPauepzg/HAWApP+kBYAD73gvAsDC2uhQ3zbIzjcuAKzzY7FDXv64b/WX3y5ImvYI1lOsDRHRZlpxGATvY2TKhYetpLSowLqSeZPxttDe2feIsxn+C5wnJQAceJ4EgJVHBfZgwfy9SkHs/MYhHygJAFE+oNvgn5f8/Ca7/GIWABLj6ygA6hzfEQLAhackANhFkyifJuS3l/aL/EeP/uYqzg9bAaDgPykB4MJTFgBWHuXDjQ71bYPsfKOx+ZpgftgJgLN8rb8mAZCqs1inTCIiHQJvL5VnzszZVqs3mYMHXkA8UYH4MS+aQ8YO0rGa6d9/KPj8LPPnrSbike0n4FzhxDHzKEGucZi/b8lwuJ0iygf87pTM59+wyy/UzqcF/rOzPlG+os/u6zIeVtvGJvX9QHJ8KzwepAUAnZ7XaZNPfyzpw/8U+Y/uEu2g4D9mC2zuxHxLwX+/dCgf70r671ibz58lOz/o5684tGOd7Hyjvn9ZMD+sAuBtsuN8r7+GAEjU8cUFxDALiTeZX+2g2IDXSLwuTecbePrzOhPig28mwn+x4i023b1azh/3+t8+r1fpFvXRarIoeOy20s1kfzI//4bBYmpdms838PTlCe8A0OOc8fBfrHjsjt0hZPmg2vf/AQFf5HpcXwEsAAAAAElFTkSuQmCC;" parent="1" vertex="1">
          <mxGeometry x="180.56" y="1620.27" width="98.88" height="69.73" as="geometry" />
        </mxCell>
        <mxCell id="9exWWvepdivDwfKTO8fI-317" value="Módulo IoT&lt;br&gt;(ESP32)" style="text;html=1;align=center;verticalAlign=middle;resizable=0;points=[];autosize=1;fontFamily=Courier New;" parent="1" vertex="1">
          <mxGeometry x="185" y="1690" width="90" height="30" as="geometry" />
        </mxCell>
        <mxCell id="9exWWvepdivDwfKTO8fI-322" value="" style="endArrow=none;dashed=1;html=1;" parent="1" edge="1">
          <mxGeometry width="50" height="50" relative="1" as="geometry">
            <mxPoint x="340" y="1580" as="sourcePoint" />
            <mxPoint x="340" y="1720" as="targetPoint" />
            <Array as="points">
              <mxPoint x="340" y="1645" />
            </Array>
          </mxGeometry>
        </mxCell>
        <mxCell id="9exWWvepdivDwfKTO8fI-327" value="" style="shape=image;imageAspect=0;aspect=fixed;verticalLabelPosition=bottom;verticalAlign=top;image=data:image/png,iVBORw0KGgoAAAANSUhEUgAAASwAAAEsCAMAAABOo35HAAADAFBMVEVHcEwAAAAAAAAAAAAAAAAAAAAAAAAAAAAAAAAAAAAAAAAAAAAAAAAAAAAAAAAAAAAAAAAAAAAAAAAAAAAAAAAAAAAAAAAAAAAAAAAAAAAAAAAAAABfF2ucJrBMElaaJK9wG35lGHKZJa2aJq2cJ7CKJJwAAABoGXVdF2lDEE2cKK+bJq+cJrCbJbCVJamWJat3HYhWFWJkGHA1DTxGElCdJrCcJ7GKIJuZJq14HoaNIp6VI6hqGnl+H5BTFF2bJrCcJq+XJqqcJ7CTJaWGIZiCIJN6H4t8H4wfByIeByKbJ6+UJaeWJqn9/v2SJaWVJaiTJaaXJqqcJ7CRJaSRJKOXJqv///+QJKOYJqydJ7GPJKKPJKH+//6YGq1nGXS/gcyZJqx0HYObJ7CRJKSSI6WPG6NxHIBlGXH+/v3+/v6WEavUrNzFlM6NAKKOJKGUJKfv5fHky+iZJq2WJqr///5wHH5kGXCvbL2LEp+wcL2QIaOQJKKKAJ6WJamOHKGaJK+PGKKRIqSKEZ6QG6SOIaGYJqv69fqPHqKNH6CRF6T17feRDaWaJ66NEqC6fcaQHaPz6PWgSK+7fsanW7WJAJ2QDaWOGKH7+Pz69/uZJq2XJqy5fcSHAJuND6CPE6KOI6D8+v337/ieJ7Po1Oviy+aNF6CZHa3Xtd2aIa7u4PCZOKqLF56gKLXw4/OTJKbs3e+PEKP48/mMG5+WMKemV7XMotS3eMNwG36OIqCKDJ2LB5/gyOWcPq3+/f6eL7HFks2JCJ2PAqO4ccXx5vStY7qiTLGvbLyeRK/Zut/BhM3QqdfbveHJm9GqX7jVsdyMC6CSHqWuZrzgxOW8hMfq2e13HYelS7SQI6TLn9OXFqzAi8qhN7PSrdmJIprIltKULKbdweKrTryzcL/m0Oq1dMG2fMJjGG+GIJa9esqTAKmXK6mcMK7CjszNpdaUJaaCIJKVCauNBqGcKbCdKbGkU7OmUrVsGnmvXL5+H42kKbmYGKy/h8mkQrWQJKGWAKuRJ6PUmtZTAAAASnRSTlMAJCoKCRAPAQIEHjEWLjMDBgwNGxETFywfJi8g2uaNNPT3lYP4Gic7qVJsaci7/Up+buxedO/RUfBy7szO9Yb1UPnS+c3k1dNCQ56Ilc8AABMKSURBVHja7Np7TFRXHgfwSTRF/5L2f+KmrunGR7r/2E03u3Hff8yVmSl3cpDhku22sGGsHW06m+IsMoIsQ2cdgYXyiAgC8obiALKAIEQFfIAUma6IruIrUaMbs2oadbO7987cx7n3zh3uDMxtwvy+f7Uzp5c5n57fOeeee3U6CAQCgUAgEAgEAoFAIBAIBAKBQCAQCAQCgUAgEAgEAolO1m94e2tCUsoKSVLC1rc3rI+O1MbN723r6Kin/8gKSUpKfUfHtvc2b1x+q00JNFTSigsNlrBpuQtwy8t69vL6lZNAh+pfblnWYnx3e8eKk8LEOra/u3xWv/hh/QqVYrnqf/mTZRtXfiv9yg2t9etl0lq/fYVb+bl++s6yYG3pWPFWtJb+N0uXitNtehkDVnp9Ffk+3dklWm1MqI8FK33V/t9uXJpWXJxuc0dMDCy9/i+17zP9XcrA0v0qNgYWPbSSf6dbytCioddvS4kRLL3x5+8sZWjFrdFtiJUq1Os/+OePdWviIrdap3u7I1as9FW1P9Kti1grbs1a3db6mMHSkz/TrY0UKy5uXbwuISV2sAw/0MWvi3DWogdWvC4pJWas9Pu/1cVHOrRorNW6GBpY+h3f6lZHjhW/Kpawknb8Qbcqfk1EdUivhbGF9ZEfK7L1MC5ubfybsYe1Ni5CrNUxh/Xm6gix6Pn9rVjDeivCGR6wAAuwAAuwVi7WqpjDemMJI+sNwAIswAIswAIswAIswAIswAIswAIswAIswAIswAIswAIswAIswAIswAIswAIswAIswAIswAIswAIswAIswAIswAIswAIswAIswAIswAIswAIswAIswAIswAIswAIswAIswAIswAIsWZyBrEysljQ8LYp/X1W7lmu7kk5fp3O65VVaMLCmNJVpotnVtpX/mihhtdy+8HshF24rDQlJu+9agkk9vH2zuaHYW1lQ1/nZ5IP6p02yq53BrxIqDz5yXlfbVv5rooS16zLC0zyogPWwS9Rud430Ws6n/7nppr+xU9bMTIqi/6ny/JlnYi7naTdSGfeetAdq26InuzTC+gQlCqEqs3IVBlaBFWuHRvKM4gZp1z9xIyoRjxVV+Gb0LSKsYnETxVDF6V8+QOraJqKTJ3Z+D1iJaLydDDazXbspbjaSV2vE2z08U4yCOKDhS/qmCLEyvgsDy1T1fWAttNcG03oo7iWNZbERfDvnf88jBQXkfXEtMqyif4SBRZg+1B6LqmsrrDUEqULxD2ewLDZubDmTrij3y+7te6UBFkHs1BwrEfW122oNSYu12k1jcVrOpkuhumWvvHdNCyziQ+2xTg3YbNJKdJ5upYJgsVoPL4sHp51ZEUWrRkmTFljYvKURltX7vJvWEldik3SuZbH889arB3bhi0x60fc1NHR5EfYhan3kZLHqJIs+1kiydWCwxBGcKenWwY+FVaJGWIyDTar1tFkBix5bzmd1Qi/sFafuTNzKTe8Zm/dZrdj/+prAhf7ddwRP30meFM31HcZzLz23bVb0SZ+P+zuUu+/w37DM9n5DiLW0wrL7qm1+LaGx89lZSgHLYvsKuwDqPJfd6Mp3WPJdWTWzwlCwFjwvClwurbEcy+A4/9+imekDeDLSDbmiDw5kn+IaU3s//VIUzoqvRK2wEofHuv1awryVJtseClj9bcI0hHwHG5MDMZsdg6XCkEML2exQPURiydgnYI1nGILHxObT4wLWV3uI4DHt1BYLzTF1iFfi0yvKWHmP+e/sZ9tyeCs6R+9VZHJDq6LXZQpcrEqwMqjBMoWFxVZi9LGsXB2222yiStx1LFPUAscq7+KnneG+LNyK1hKWSXTZQ5oClzuUzFmpwTKFi0VUaYBldXexVYNKCv1YqWwlvrrANkF3vVKsxvFjfHePe8RWZlcbf0NJeWuukiZRJRrUYJnCx2L28lHHqhvhTJ746zA1NTVQiU1cFQ7PDkuxRrHB80Wj2Mps9lwUvj2XQ5J4JRrUYJkiwGIqMeplWDnDTtX2rlv9fquAlvM6O/VQrVNIilXGr5NUZ0++xMqc0ytsDS56SFzLoAbLFBkWUZUUbazhUm43hcbbA1aMVpJQhRefS7HyHwm9bfZIrczp2fyCiBq+vspoBX5ClUENlilCLCNx6PMoY6HxUk7lfHUql9qP0xrY4YHGzkmwksvvCL3ta5Ramc3Z/F0jVTzkIIWxdUgFlilCLCMdItpY96vdFLtD7unntbp7CzLZ6my8I8ZKTs6aFHo74ZJZmY9i35e6SEyralEsU4RYjNX+P/8xyliz1dx8PHy/ncdqv8/P+9VHRFi0jUc4b0A1citz431s5JUHVkFuB7HI1sEUIZYxgPX3KGPNj/aySz1aEOqwmrvLsI8NvMaxmKIrEjpQVy23MuecqxC2Zh52f0XwlRgCyxQhllEjrJG8LB83tMq5Oizk9krIV5Y3IrT17z8thga+A11lciuzq9dr5ZfDo9z+iuAqURlLbkWowjJqhTWZx2ugI1wdts9y0/vjrLxJYWQFsG7x+3fUUCa3Il1jbn45bJ7m9qKc1iFFrCBWqrCMmmGdHCgsqWSH0XEXizVwF7GT/kThwBMJVn4PfyiIPpNjkaSjRMC6NMhZ8VpNCljBrNRgGbXDujFgy2F/UGZFSSFbhdxYuzKKbdd5rE7e4niZ3Ip0TAhYC4O8FafVdCYoVlArFVhGDbGaR23C0vc4z4+VtRvxZ/OWskvhYJFBsITBQyhjBbdaHMuoJdalalt/OXvAgBqOMlb9jgauCtvyLWWnQmBJy5AMgoVP4cyDtKBYClaLYhk1xTpF7xcG2Fsea0Fpt39HOswNuyyLZbpB/ZwVWPnwOev8oHgjRQTHUrJaDMuoLdZdGqt73zA/3TPT+xxXhb3dFovHZ1dcDe3i1ZDdUrnG6rDV0CDVCoKlaCXC+uuekFbRx7L7aKz+Iu6Wp7gsNdVW3mpn/62avr0p6pJgObB9VmeZ3IrE91lPjkpv/gg5lrJVaCyjxljUXmbbPsrd8qCp7tTuKfZ0hh5nFku+QSi6ABa2g7cWlMmtyJwZYQc/UiM7VjgoxQphFRLLqDmWO5uZpaYquIPgrNTRG9wM9ryQxurZK8XynBd6u8chsyIbZ7F7wwMyLOmmNJRVKCyjHOtP0cWyemtsdB2a2YmJOvu//EF2xrH7jjKHV21npVj8zoL+6EWOzIr0zGGnDkWLYYW0CoFllGOZo46Vy9wQ8o9r0NQAd37lfw/Ekj9ULMUqnxF6O++RWZHZV7DzrNxFsEJbKWPJrYw7oo/lP8UqbBvmjwDZIqPqSugqtBRi+wAWy7JH6O2VAzKrqyf4Jxao4ev00FgHQ1spYgWz+iDqWAVt/lucbvZHUWfH2JGEFhqZc1F8H8Bimcv4Od/qHXJJrMicc9gZ/AlDSKwvDoa2UsIKZrXj8+hjTfixsubZTyhu9kZ32plz0RxsHxDAMpunsec3r7MkVh97mrGnOxlhYhGqsIJaRR8rszJw89z/L+6ZKofmdeUz56I5pQViLOZ0b4p/6ky13nKIrEjXxDH+S++J9PCwCFVYwa20w0qtXpC8ssXc6iTLsQKn7HeF/k5mi6yuHsAOnW94DGFhEaqwFKw0xGo/Inlla1+j/wxZgsWesh/mG1MFvY041vThYf4SlS+KwsIiVGEpWWmI1d8jej+Pcnv8VhIsdlPlEG4PE+3esWnuRQbSkX2vQniLpjnbEA4WoQpL0UpDLMvoRSR6CXEgWRnLLDwfo7UK5os8Lgcd1/SjSWQVXusdKwoHi1CFpWylHZbF0j2FYVkLSnOCYHn4G8Ea7IUkytr1uneorW2odK4VfwXyZo0hDCxCFVYIK82wmK06VlqJyJfhCInlavNi74/aEXJ3dtbhb4DSG9JvcsPAIlRhhbLSCsv/CkPWHPbq4zz31pUCltkzUyF6i5KiI1pN3Y+KDOqxCFVYIa00wgq8G1M4xHcis2LItQjW/9u7t9im6jiA4+t1W9vRy+mNti6bJoW9cXswontV21oorF0HkRQ7NSQQE0ZMlI2wzAWZm3shyICtRiHERBAv8AAj0cAiDyCgWXxhL0pcYswW3vYgif9zTu+nN8/l///9m/N9bkLOJ7//v//Tno6+i9c/r/HEdmLi/vFo41jhhrBqW+HByj7Ot+d84WO+Czmr6lh9U+eOHKn6RPvEnblo41hhsVgRYlj5W543Eucu1sVCR6o7t6s94Z/4d7iaVXRMgBUWixUhh/XxfPY28MCZuT31sLjnjr9/fCtxoOJk3b5T6U6H+wxZgBUWixUhiJX/1itxd7i/Dlb2DDr36NczFX8alvj2n7nRys+LlmOFxWJFMGFdKvyqY6GAhW55+J6cLmDdL7z03lT5Z8jpYw8Wrl2u/OORX+amKz4DOfak8PoPxmpbhQ99Wfityie1rZTCCr05fP4U348f7Sn03alTw2zH+guduDGc67Tw8/bdu09M3Qg/unf35oULNy8dvFx8KP1mYXaw0rNqD58eyvb0YR2r8Htz3At/Ql2tY6UYVih0NLM3e74qqV9YhedkSkt/eGxq9uTY2MnZBz8X/9IgMXG9bOPKHqqu5KtnhbTY6pwZFMea7JfLin+maBAVjU6fvFSyFA8ODtZ5pqiRGrNSECsU6pfTKtfo8G+fFd0ITCyMYrNSFEuoJd0qGh08/kP+9JX4an4an5WyWKHf5bditeazX+8n/px/G6OVwlilsyWPFWr64WP2qJq4G8Y5V4pjFWvJZoU2rquf3kokrs2NYrVSHKuwEmW0Qktx9o/b965itlIeKzdbslqhjv89lsZshQGLny25rdBSHMRthQOLnS35raJR7FZYsCbTzWGFBSsUSjeFFSYsgRaVVriwyrTotMKGVaJFqRU+rCItWq0wYuW1qLWKDO1+B9sfdU1TbhWJYcTitCi2iozjxEJaNFvF4lixQmmarXBjCbRossKOVaZFlRV+rBItuqwIYBVpUWZFAiuvRZsVEaysFnVWZLA4LfqsCGEhLQqtSGGFohRaEcOqoAXeihyWQAu+FUGsMi0KrEhilWjRYEUUq0iLCiuyWHktOqxi8ShJrKwWJVaxs2SxOC1arOKksZAWNVbksUI7qbECgNWIFgwrCFj1tYBYgcCqpwXFCgZWbS0wVkCwamnBsYKCVV0LkBUYrGpakKzgYFXWAmUFCKuSFiwrSFhCLWBWoLDKtaBZwcIq1QJnBQyrWAueFTSsghZAK3BYOS2IVvGzO4Fh8VogreJJcFisFlCrGXhYSAumVfIwQKxQGKYVTKxyLSBWQLFKtaBYQcUq1gJjBRaroAXHCi5WTguQFWAsXguSFWQsVguUFWgspAXKCjZWaAcoK+BYjWjhs4KOVV8LoxV4rHpaOK3gY9XWwmpFAVYtLbxWycMr4LGqa2G2SqYkY+0aUBqrmhZ2q1Ra6n8G+ZzyWJW18FulMl1SsHSOlu1fKI9VSYuAVXLpZUmT5Wh5/msMWEItAlap2PLGFockrBewYJVrkbCaWVnrlYbl2PDiwK5J3FokrFKpZ109OklYrpbtA1hGq1iLjFVsOdDikoRl0W2aGQhNYtUiYzWeXuzVW6RNlnvDSyk8WDktMlapkaUt69ziJ6u1XW93MY5NfTE8WLwWIavxzGKvnXHZ9e2tIrFsdifjbXk1HU9hmy1SVn1rAZuXcdptIrHarDadwe019bySiUxi0iJklVpZ7e4xed0Gnc0qchm22XRGC6NhNi9mdmCarREycxVd3rfNrWEsRp2tTdRkZXd4xh80bV5ciibJaOFZg6v7tpmCfkb0/s5hoU3LbdJo/Zu7lp/tmJnEr4XjzDCSWeve5tdqTG52yxKL1Wq16dE69Ae1/p7A2lJ6CLuW8vc4qVjf8v7AVq8WDZbFqLdZxa3C4tHyaJnOLYurmStxdqd/a5eiDY3kGoo10rggIUzysDD21L6SWd2/pZNBFyhtsPj3Q27XQlo+zWu9ga7F1eVMX4NfJItvb4Zvb0MdFVThj/n3p4UdzSyvLnYHOl/X+JAVt2OJfC8sjJYBLcT1Wo+5I+jd2rkx0L1P+f7ier+h3hVfd2Bj51bv+g6zR7seLUKDlMHidi10ine6OS2f2exh3zGchmbJxWiCHrPZx1mhRahvF71j5UZL72C10Ers8CEvs3ldM4WoOrg16HaiRShlsLiDabtNx2sFtR6Pz8eDNUs+n8ejDfJWOtZKClZey8KYWC7k5eloongqE2ORwyqrpbcbXG6WSxMMIrFmCV2MhqVyuwx2vQxWeS00XIjL60dgzZPf70VUaKxksuK10FK0G50ui9vNMKamiWGQlMtptKMlKI8Vp2Vtt7HTZTQ4XS5L0+RCxyAjO1W2dqtMVqxWlkunszscDiOK9iMWew3oUux2XY5KJit+uBAX8rLp9YisOUKXgi6oHVG1yUiVm642KwJrrqyclLxUWS7k1Wq1sv8A/bHX0cpJyU+V92q2WtTU1NTU1NTU1NTU1NTU1NTU1NTU1P5H/wHEI5K1bFQuugAAAABJRU5ErkJggg==;" parent="1" vertex="1">
          <mxGeometry x="260" y="1600" width="27.56" height="31.65" as="geometry" />
        </mxCell>
        <mxCell id="9exWWvepdivDwfKTO8fI-345" value="" style="shape=image;html=1;verticalAlign=top;verticalLabelPosition=bottom;labelBackgroundColor=#ffffff;imageAspect=0;aspect=fixed;image=https://cdn4.iconfinder.com/data/icons/feather/24/wifi-128.png;fontFamily=Courier New;rotation=-45;" parent="1" vertex="1">
          <mxGeometry x="170" y="1602.36" width="29.29" height="29.29" as="geometry" />
        </mxCell>
        <mxCell id="9exWWvepdivDwfKTO8fI-355" value="" style="endArrow=none;dashed=1;html=1;" parent="1" edge="1">
          <mxGeometry width="50" height="50" relative="1" as="geometry">
            <mxPoint x="120" y="1581" as="sourcePoint" />
            <mxPoint x="340" y="1581" as="targetPoint" />
          </mxGeometry>
        </mxCell>
        <mxCell id="PrVj-p2cwU1lXYRdfHfB-1" value="" style="shape=image;imageAspect=0;aspect=fixed;verticalLabelPosition=bottom;verticalAlign=top;image=data:image/png,iVBORw0KGgoAAAANSUhEUgAAAOEAAADhCAMAAAAJbSJIAAAAdVBMVEX///9YWFpVVVf29vZ2dnhRUVNzc3Tx8fJaWlzc3NxQUFJLS035+flOTlFiYmSjo6RoaGq4uLiFhYbo6OjIyMl/f4BjY2VHR0nk5OSdnZ7R0dGnp6iYmJltbW+xsbLm5ubJycqQkJG/v8CEhIVBQUQ5OTw6OjwvI1V2AAAWxUlEQVR4nO1didaiurLGKDIjiIriBGrv93/EW1VhCGEGofus67f22q2ofyiS1FwVRfnhhx9++OGHH3744Ycffvjhhx/+f8PWFsVfoDC5bxfEPVqcwFfIloR6Xy9MoHZnq0WhPham8GrCqMtNIQzmLDuJgYWPdbMUTkCieVuUwpsKM3i318vAPqi4Ys4LEhg5uDWM5QZM8IlulxtP2Sy9ap40iYfFxvPxierBYuMpnLMx115oNM1li3PvtQdjOteFRtvBLmTeUs8zhW/hJC6zbgwd9oS5tBZl73Hh7BcZ64i7cL/wFMKDRRFsLcG/oxBGCovlcjZmRfEk9/hkj/M/WW2Lq+WSvw9MfU6wYqQzaTb+7BT6yGZOxRTezFkVbrYqNJkrcbi51dMAxlxZr/w9127mJHFTDI4Sw7zU3NU3QQrpptgM29mNKLXQZF6k2cwrMYihsUJSoHYzM0TJe0QekMxK4bs8BGk3c8MptCeDSI5nJJCsGL3Y+7u5dyFRJGgytElOM1KIxrb4SPUFCCxpMjY+Ums+ifFAdr0q3h/n34UEQZN5oI3hzeVbfOq4CwVJES5D4Iq9c2Zjb+eUGJLapM0vKTI4xbqc071gIEFh8bf9JdgMh6jJ4NaYx8awZYV0taDH1Nzl456RvYXxDBS+rLLr4rYQm0lRDHxBZrP5vnqqoVJoCZLCWpRAUc04lWXWtyA/uffCXn1BVcTVtDK/LTE0snslJXhRCr3iZtw5JAZKClUwZNjCU1jSZIirs+9KjAjtXF1QLZaTFBlETYZc4MevUngvr4vnEjaFDGH8APeI+k0X+AOfmVs8w/3Su5CjWENX9bsODU0v+4CMvzCDq5Ims3a/KzHQ2yREfuzlFNIyBE3mhWaO+614G5mBqiSP/gYEeWx/1aGxlVwXXtsUjpzefj8zBZ0KBfTnOxIjJnd6wWYubR5S8zSGzTLm9ROwpiwxvuECX+MUOgKnbl2jj6eRDGa0zIuDqFdyhyAxzsRsXnW3PBDkaRayWdokhUkBvuPQWXTQcDj3cvqwstYhirCxCHTJyd22Ri1iR7uBk5jGdlu3d/7dQpOhoKk6PWjKndz5W7t1MXGX0WAKT/0pFDUZ8m2qU13gEe06YWm03v1ICgfMYdmh8Q2JIf2RJic3U1WJQrjSfcf8OyKFrPNXor+WfjEtGk2xNLczluYcdzfarzmF7H65dHJHdtth7Fqg0Hzvkg6OI2oyO8rQmEKgrfdycpM/M9IFCpkHTyXoWHfMT7+cU8hu8OrQEZEUltSaXOBTJAZlsejF+waFlLNw4Ek5hSqp6Y/We2Vb3FGaK1DIHV2bjrn/SC7w03iJQSJKCPXEDcJezwgr5pB+1O5R5VqmtmU5hal065Kngiaz3kxzaEim9LrJpqih8DAjhaImwyMLY22MGHmiU7CZa+WGmaN2UshMU75j1WGdFDKzWeaImgzOgjrSoVFxcuvynbLj46Z3UMhO10eZ4zD99kAiWimEP32pjFc8okKToaCpE4+ikOdZlZ9WeRx0taMV00IhsQG7tO7oS/idFgqJXxpu4ywKmszFyZjWUBCvFwyyqMJmQrofkHotFNJTUA7C+ubOgqfVSqFJO2vfPImSuWqOcWiQk3tbVpHSe7TCEN986HrSg0IKAahhSHkOdHNB2EohVzKIQicM+fOBF4X0EbMl8K86ww3F82fVEEtjm6eiIZfmFO57Ush2NmkFbN+DQj2n0IW/9KAHhC8KCgVNhmyM4fm8Eo+yi21P8h1TsAZRyIWYbw6kkC8/4HmchCLgJRp0+V0NAe0cwcl9zRcI2+JtoKgdRGH6Qh9IIbc4YXT+wi9uQ8g8S8oWXi/YUkquYID/IxSWXOB0X8PUU57JXevk/lcoFDUZ0p8HZS1ruOmErItYYNt/g8JHHYUilxicBc6d3OUUj6kU0qIyhvLS3PNjxTKFoiYz1AVOzEmVJE7x7PADtBSH8VISrVd1IIVcP0PTcZ9eEZ914QJ/D8sC35YFjGTJMvf1jLzh8vBtnCmGNUwerq6BQVzA2Z3Pt7KSI2gyZ3Jb93VoxBTRbnZyM8eyRug0zLKo4I10Gq23TmPyweCZW5asGQv1bIlZyp1qBVf0BEnxWdXDonWvt1NIS+El6qVe+szbKHSM9EU7xIWGGRo9c/q4k7vFpij+vs1VgzbrCT8LSn4J5BlrmJ42Cmk2Dt1ecNkFfupjY5D4FLIuDs2Gunm/vAvdp8E+ZMlNMvTU/eWe56402Ieqd0l6BPFkX7WQO9UMyXXR6uROvZvtXgxWWQP8Zx02fg9366qkyZDQVrslhoF3pQ7L5F7YE1X6I4Ims+nlArel0kKtz2iTPFH3SRRWlOfODI0XZV088/e9Cka4OYoaSEYhl1TXdn8pcbNAF/2l+PthaQIVF7iQO1ULtezkjvqNguHFl+jVZ66ROonafgaKnJ2UfN7JOrV3+0PM0MAd1SExejq5K/fqHumbQtxCPx6bfWXZzd3fp3Lcgp3egwv9rTLTEA3HKkhSCCs57pvJzUvmS9G1PoF5/rNS7Gl4wpyYBd5ZoCxlGLdnXdRggfhh3ahCFrhU0yMjIokyIT9vgRhw7e8F9TTX7etQzeQeivnj+LUQNJknvm/MAueaXQ+FtBGkCbeH+uvg4IOJJhTgqJJDQ9CqRVC7EjGTe0QOKUuieHh+NPP8yD9NSJaTs8AbXOCJUwrN2V2ByvqxLGdMTpQ56mfCsAL/R2YT1k3imSLGxQpePJN7CkRN5t7kAt9Lgbh+uv2/AlFi4Hu1KjHIDHTLO/Z/CHLxdY0LXMrkDpYpLfwexHuXvL0cD6l3yMjSwrznUfVSXWekVeXCeAiazEPy2CM0TGEVSwvHDae/94CSPGQbfonRRwLQCnSFi0fPVacwN0GTIYksucC/lMnNaBGIhi9zSaPas1DeFuhtK6tXwSuxJkykoMnIkbMsAidYISMLRqxDeu85uK35cqqGKboaK4kw5wmFtzzcwGeIksnEDA3JwzG6GRu/5aBQT3ihCygP7C0TAwZ5jeqxvo1PkxeaAhlSBFsuBkvG1vzwbgt2EV3gkVpQeLmHWWgOhk4Ph6Y8fZ8PPn4WP2U/fRHX4O1KhCrN0UVNqdNkl8lSXviNEXIiZp1six5sbuo0tz16+74YExdQ2S4qqaeyk3tCzY8Z4x/Inci8zoZsFtzkmqeWZEOIM35OGzCq1jEoVtTI4YXMCiEbiJxwTi8ndye4Pqilzg++96nInSZXViNU/HKRDqh6tALW45UN0QUuGLtkFheMYLh5Jw7Bk0DSRcBNMUpauuP8SJW1XDwJfFvld9GcKNQJVcrQ4BEe2Y0/3tZeZWYLv0f+RHmqMlllr/Lq4BN+EfYED7RMUIlVSQHny7aySqfo3Pzv8NRZHlNIiEKS7TtLzUDZTo/88xR8344v9K+s0tSI2km5bxNWSbrySeljdyVfmZxT+7dLBtTZyKuzFg1tzvzGUyhF5vO8w4q0mFCbxo74pHjWH05nmpZYqd6hWcYlFJy+N4dyZL5w3lck/oR1yiPwxywAGvFdVomw31Qw6ZB1PkXRxCkcvQ/DJolfqb/rSrJvA1dNgX2ERFRqE8l+E8yd4LKkxF+5apyMHF2It/C8Q+GxfkvzXq3ywD0XBZn01snoKHS2AJ4p599lQ4S02JHPV47Ml3OjZetpvEzk/CUIuRKTbjKeffT6hBmsfNGIwsKhp2OMbHsjR+ZL1hOvZZ5uASOojZTtkvDO+kjxDBOp/KJSypcW54xsKSJbwHJIn3TT02QvBo5Ej/IYZc+tIEa6dc5fhSX5oQvByFp/qcea7MXgIzkF2eM9UalEtEWSTLx32cVMlkVRKsZWrynPVoip1Xui0qX7BW9ikfEXFOmuMVIo+e0t5OVpJRUz2YZvm8M4YVzxJm6r6VHUAVVQT0d7hPOi6MIK43uzzKB5FkVsAUJzu0vX2GHkqD08wpXct9ENA62DMBInhqSApCpxYaFhj9JgnT3ww8hqd7FLXaNXn+e+TY3MrApLu5A4fPxDnWVRxmOs07RXZIZrMl/ok5S2xhRMdT5d0s6uuKHs2B2tkMoFJg3pwtMjpJweSscRbQau1UvCopzaY2v+ZnwsyDyXiWiIkHJBqUoR4zEkXnzfLxm2e7jwkvQkdvNzPG5bZ0IAUb7nsDEvijQZ6XmMGtFxnNKEMbhQoQC/lcKcFMqT111b96Gp2SZ/B2IHqY5sE67JyHzpX4fM/9uPNKDcN0m2/OuQs76EvMMakCYj6wf/NsT+rT0y9ypPYeZ23dNRyr50Vt09eOWVHPzry9SRumJ29ziTuVF7q4+/Dtmm7dMIRMp9m+Tknx+yX8LsUfskawVTAjWzQ65GqEaV6yAF2+wpLvC5IW4nSatugVZ2F/OI8b8JwQLTBlQFVSys1vZl0pBcweQNeVj+Jg3FpNkkqnCdCddZEbTpCVOq7Ord3EyykoPeiZHu7sr7QVx3+oq9+Rvvutvtku2K6bsrdklQb7s7pUrQdVgw7vVyQgITvLC79re8xfKzQdV5HRWWbUMGVIIAIxkrtgqU86rgy7Hr8ooDl+c9Zj26H5bHjcns/nqnGJd6rLFBFZZy7lvvBCL0wh4ZljPcVFoECdWMatddDKToNlKInkVsRAYUni9XQ1FUj0e/gELtfD4HvcMWYqro0EaRsscx7jkosuCH41yVNeNxkYgSn56uBe+iFVJI/ZVQwwcKo/9CoNotKHz8+Xw+vadQrnTuU7eWQ85965ue4byUtQnP8mqyu2LfqJhprwR3fXtWDkQhTLPxQG84UGi89y/lHBYURpfdjvZkLwrL/RAGnrFV6TjQd1RY2skR9xUsxuijKS8T92EQwMNKaJU6gXL1cBWn+zDYOAWFhJ6cRki31PB91cndDjl6s+spMcJAOQBtDNfrhcFk3XH/A0cI9qoLFJqgN3oucKIQKNQOsQF7UtiHhmH0axE5uWtEJffN7ixiSp/sFck5Mpx/G5fN1cJV6is2FeF5qITQ9S1I5yhkzkF5uVSEyIDCAXFL2Ygd3pjuKeW+tXcmKx4tqntauLICxQ60wFaCECg8AXG+Bf87wQLV4DoGE30l/hPCCAeg8HjyPCcGYj3Pa+4sJI4jlJ81O7nbIUXC7Z51j5irdzVxQDcMP3fYcUcl8Czgc3vkmy8lUOE6zDTOK25PZZParMeY//vqM5FyBx6zT4mzhEA6BKzaRal+aCAI1lycngQH2/KtnD3MSoiAN2+f1PiBbWCXPmC52raRAKfBF8rxwP/1e6wW2SHY5ORuB2Wk6INd4Mx12Ur3Tjxspp9O+snFP3TydBdepxqgS9ddV8UuAvgCPnP5v31WqSq5LkZ1wqoUej0HBU2LwGf6EnRs/l9xPcteLye79yGwEO4UgBS0m0GQO9ItcrpTH3yrI112dE7+dt0oqRyLwFT6B+wfxi+Qz8dxXMYz1HmHC9Vyss9NbHbhiB/prsWyBhrVPhjZcN/qKsg1GaEzZFMEWn89QWU+G94O/40vLohjvHCOwIY6+ecgiFFRcQ3kXuoleFkJff70w+vzSSXS0TkBjf1iBEH03hpPH3Oqguel9pFWnNwTjrqQC58bJjHTfe4p531aaWa+5jpJejePEN1iHnXvMj7pPoo++AuwZMDevphZFsHxRX4zo6nEU5LS7aXNHejZoRUoPIDtetFBTXE9YNzJSVk/4MoNE/mC3TExkA6XU3gFCi9wFYzdhDQTzWWg7N3UGPj3e39+oBmEX1Hetau00qF10iFlcgfU+pw+oPD2CUMLDaKP+WetPEBNOYEhZFkH0EwdZoIdcHZLFEYhfG6ikYi9kZBC2PDXkKFfAznHPmjKJNC/2WWXazKmEEOuVU+Bwsj3/Z1JBhFM+fGk2EYURbuPzYOQeM/HEoUafBwd4fnHMOfvD1B45W3WV9m0BPXZX+KSIm/QxHN7K92u6yYx3YfnTAM6O+k+PPxJg9sokvclCgm4SiMWwA+AQr9owoBby67XMNIyI8LA5lAN6NPMBSg0Dof4ARRqsY02IShiL5jVBOaQ7AVzD2wPNe9iDjHwTQbG5w3L85nPIYl8ME0a8ngrHcsnn3HBs8ALAXSoebJA4cUBbYT24QE1WjD5PNyZsA/tt2M6XgA2jrpWLpbqRMohxH0IwH0YWWi7asptg6aWat49nk1QT6FgBpJ4/kLXefnkALumVBspJP0HTT6Pu89s/3p97NyNrawPV1+DPfMBA3C9e8Mc3CzgpQ/4/GYihbzu8YbOvdf+FjyxQ2sThWZDJvcU0KMSc/qqIwOFu4xCC/NkvHQf2htnUwgr954WxehZZuSZKOSs7OJkFS87atP2rKNwltMfuCbjFM+qmv+p+wa5ANWd8TDZKTKuLj9yOr4zdrr5Eb2JXOa9Avt8xd5R/HOfXQzkXfrLMPao00RrOyZdMTFqzcRZTvBIbWippl8aOG+pZnJ9MtU7McOEqWaupDLHCjOdM9NLiTk7mV4ahjwrhVm1BErRlC+dwvIvnaRTRMSkc3snQvJlfT9o2rPMOZQKe/RvnYZUOdGqTxa46+pgNKnFS8ZfuHr2se7i4enwnlnu5t4j6WvGE63SU8kEZaLToeGCyQSW0A1mZ8tfJsw6a+9Ii01cXppx9zW8rt0c9xVomtGjYYjReEOTISe/dzo08gQCw1NRJOL+uYCC835QnMkCRTbrPrpLd/i1i0IxQwTX6FdPlkuPq65rnNxAIQjx5J3E2ANms14fdQ+MCzA69qgPOLinN+ZBORz3+/0J2MXt9O6MqfGQDscoJ3cH5L4gHdsGKTypKnq+j9v1+m59HoqNFIJOEnyA6WshO1CoKbR2iu1yGdIKMT+PpnSiTSGDNBnxZLduClG//M9Wrve1/bg8NCX+Dyi0YMa2ugaWHVC4hm14vqOXPLp0pUGKuU6znNKZnorU1wWeUQiWrZ/qtMHmAxSqTFNeR+olyLfRemu+Ddi0QUcUVnAXzXPSaprr0DcLPKWQOcBggMKXodghC7EIH1j808DQFlAY3S6Xm7tSw/tO6xBBfTO5p4BOPJaOqm+lULdML1bWHu7DrQ08kyjk6wD4Ke1DsKBUdves/64dR9Ez+cTjGY5Xl7PAW3udIYVRFAVoSQEv3YA2onlEIXkdkBqgMIjhOzfXeD5gm9YZnjkcSVI1Z3JPAS2jsF+/uowvaDeTbWx7o3qwDIHtJIwK42kaYv4Vn7OM1qpOsefce7aTx1MXuBD0aVNPXcrBT+4mtirzPcZuL19/vKjFyMsnb8UN/Rz+K2HvlxFdW3VdUWMksTLP6fF8fZjF+ojaSiHNPAWfH6WjOuYqzdc3uexLc/UZdc+unLZTmkL5+KMR4dB+kF3gY+uGhsKSnNzeBCd3BxzJBb4MgaWKutUs56rn4JpM2ec8O0QRdZFqCb4O+Yzaehf4l+FIhzsJ2s0MkLPA+8TcJ0LusTaXpMjA1dNizPmPd/76sZwdIE3GEuqG5o58C10C5L6AM4GnU5eN0TkJZEIpnbXqeTbAJFQaoZj6nGBCLghaN86kcGg/RNL5HmdjVkiZ3JvvOLnb0a9B/9fBc6xmUkiloXB/fNtL0g2pX8Cs6NWg/9uQDfBZwRuhLLDlBazncl3Ug9ILVzP4EZpxVReRFDm2i4heAVQ8MPDsuEmIpUYos0PqgbQAyK2+FZp1zgqbOp4MPsNxEijIzjZL4TQyk3sKKNe00t55NqyEtjcLYUIf1XFQZ3Rd1MMPl5tBgNrUrmRG7LdL4r64logdZRbF8gT+8MMPP/zwww8//PDDDwPwf3Y/uv78sDFNAAAAAElFTkSuQmCC;" vertex="1" parent="1">
          <mxGeometry x="490" y="1600" width="96.03" height="96.03" as="geometry" />
        </mxCell>
        <mxCell id="PrVj-p2cwU1lXYRdfHfB-2" value="Variador de Frequência" style="text;html=1;align=center;verticalAlign=middle;resizable=0;points=[];autosize=1;fontFamily=Courier New;" vertex="1" parent="1">
          <mxGeometry x="453.53" y="1560" width="170" height="20" as="geometry" />
        </mxCell>
        <mxCell id="PrVj-p2cwU1lXYRdfHfB-3" value="" style="endArrow=none;dashed=1;html=1;" edge="1" parent="1">
          <mxGeometry width="50" height="50" relative="1" as="geometry">
            <mxPoint x="453.53" y="1580" as="sourcePoint" />
            <mxPoint x="623.53" y="1580" as="targetPoint" />
          </mxGeometry>
        </mxCell>
        <mxCell id="PrVj-p2cwU1lXYRdfHfB-4" value="" style="endArrow=none;dashed=1;html=1;" edge="1" parent="1">
          <mxGeometry width="50" height="50" relative="1" as="geometry">
            <mxPoint x="624" y="1580" as="sourcePoint" />
            <mxPoint x="624" y="1720" as="targetPoint" />
          </mxGeometry>
        </mxCell>
        <mxCell id="PrVj-p2cwU1lXYRdfHfB-5" value="" style="endArrow=none;dashed=1;html=1;" edge="1" parent="1">
          <mxGeometry width="50" height="50" relative="1" as="geometry">
            <mxPoint x="453.53" y="1580" as="sourcePoint" />
            <mxPoint x="454" y="1720" as="targetPoint" />
          </mxGeometry>
        </mxCell>
        <mxCell id="PrVj-p2cwU1lXYRdfHfB-6" value="" style="endArrow=none;dashed=1;html=1;" edge="1" parent="1">
          <mxGeometry width="50" height="50" relative="1" as="geometry">
            <mxPoint x="453.53" y="1720" as="sourcePoint" />
            <mxPoint x="623.53" y="1720" as="targetPoint" />
          </mxGeometry>
        </mxCell>
        <mxCell id="PrVj-p2cwU1lXYRdfHfB-7" value="Modbus RS485" style="text;html=1;align=center;verticalAlign=middle;resizable=0;points=[];autosize=1;fontFamily=Courier New;rotation=0;fontColor=#EA6B66;" vertex="1" parent="1">
          <mxGeometry x="353.53" y="1650" width="100" height="20" as="geometry" />
        </mxCell>
        <mxCell id="PrVj-p2cwU1lXYRdfHfB-8" value="" style="endArrow=classic;startArrow=classic;html=1;fillColor=#f8cecc;strokeColor=#b85450;" edge="1" parent="1">
          <mxGeometry width="50" height="50" relative="1" as="geometry">
            <mxPoint x="450" y="1649.71" as="sourcePoint" />
            <mxPoint x="350" y="1649.71" as="targetPoint" />
            <Array as="points">
              <mxPoint x="400" y="1649.71" />
            </Array>
          </mxGeometry>
        </mxCell>
      </root>
    </mxGraphModel>
  </diagram>
</mxfile>
